<?xml version="1.0" encoding="UTF-8" standalone="no"?>
<!-- Created with Inkscape (http://www.inkscape.org/) -->

<svg
   width="1621.4744"
   height="271.32791"
   viewBox="0 0 429.01508 71.788843"
   version="1.1"
   id="svg5"
   inkscape:version="1.2.1 (9c6d41e410, 2022-07-14)"
   sodipodi:docname="схема DW.svg"
   xmlns:inkscape="http://www.inkscape.org/namespaces/inkscape"
   xmlns:sodipodi="http://sodipodi.sourceforge.net/DTD/sodipodi-0.dtd"
   xmlns="http://www.w3.org/2000/svg"
   xmlns:svg="http://www.w3.org/2000/svg">
  <sodipodi:namedview
     id="namedview7"
     pagecolor="#505050"
     bordercolor="#ffffff"
     borderopacity="1"
     inkscape:showpageshadow="0"
     inkscape:pageopacity="0"
     inkscape:pagecheckerboard="1"
     inkscape:deskcolor="#505050"
     inkscape:document-units="mm"
     showgrid="false"
     inkscape:zoom="0.60685511"
     inkscape:cx="810.73717"
     inkscape:cy="135.12286"
     inkscape:window-width="1920"
     inkscape:window-height="1009"
     inkscape:window-x="-8"
     inkscape:window-y="-8"
     inkscape:window-maximized="1"
     inkscape:current-layer="layer1" />
  <defs
     id="defs2">
    <rect
       x="1634.9689"
       y="688.48053"
       width="41.482872"
       height="189.02171"
       id="rect2052" />
    <rect
       x="331.76279"
       y="366.29932"
       width="95.746834"
       height="45.890827"
       id="rect1352" />
    <rect
       x="174.73798"
       y="348.80188"
       width="342.29495"
       height="160.5713"
       id="rect1346" />
  </defs>
  <g
     inkscape:label="Слой 1"
     inkscape:groupmode="layer"
     id="layer1"
     transform="translate(-35.000002,-92.287163)">
    <path
       style="fill:#000000;stroke:#000000;stroke-width:1.98843;stroke-dasharray:none;stroke-opacity:1"
       d="m 40,142.875 c 404.41823,0 420,0 420,0"
       id="path424"
       inkscape:label="path424" />
    <g
       aria-label="0"
       id="text1034"
       style="font-size:20.0466px;font-family:'Times New Roman';-inkscape-font-specification:'Times New Roman, Normal';stroke-width:8.11785">
      <path
         d="m 35.000002,156.02017 q 0,-2.2709 0.685186,-3.90556 0.685187,-1.64445 1.820639,-2.4471 0.880954,-0.63624 1.820638,-0.63624 1.526987,0 2.740746,1.55635 1.517199,1.92831 1.517199,5.22699 0,2.31006 -0.66561,3.92514 -0.66561,1.61509 -1.703178,2.34922 -1.02778,0.72434 -1.987041,0.72434 -1.898945,0 -3.161646,-2.24154 -1.066933,-1.88916 -1.066933,-4.5516 z m 1.918522,0.24471 q 0,2.74075 0.675398,4.47329 0.557938,1.45847 1.664024,1.45847 0.528573,0 1.096299,-0.46984 0.567726,-0.47964 0.861377,-1.59551 0.450266,-1.6836 0.450266,-4.74736 0,-2.27091 -0.469843,-3.78811 -0.352381,-1.12566 -0.910319,-1.5955 -0.401323,-0.32302 -0.969049,-0.32302 -0.66561,0 -1.184394,0.59709 -0.704763,0.81244 -0.959261,2.55477 -0.254498,1.74233 -0.254498,3.43572 z"
         id="path2117" />
    </g>
    <g
       aria-label="DWₗ"
       id="text1034-7"
       style="font-size:20.0466px;font-family:'Times New Roman';-inkscape-font-specification:'Times New Roman, Normal';stroke-width:8.11785">
      <path
         d="m 109.57704,162.30431 v -0.36217 h 0.4992 q 0.8418,0 1.19419,-0.53836 0.21534,-0.32302 0.21534,-1.44868 v -8.57463 q 0,-1.24312 -0.27407,-1.55635 -0.38175,-0.43069 -1.13546,-0.43069 h -0.4992 v -0.36217 h 5.40318 q 2.97567,0 4.52223,0.6754 1.55636,0.6754 2.49604,2.25133 0.94947,1.57593 0.94947,3.64128 0,2.77011 -1.6836,4.6299 -1.88916,2.07514 -5.75557,2.07514 z m 3.7881,-0.95927 q 1.24312,0.27408 2.08492,0.27408 2.27091,0 3.76853,-1.59551 1.49762,-1.5955 1.49762,-4.32646 0,-2.75053 -1.49762,-4.33625 -1.49762,-1.58572 -3.84683,-1.58572 -0.88096,0 -2.00662,0.28386 z"
         id="path2110" />
      <path
         d="m 142.47578,149.03126 v 0.36217 q -0.51879,0 -0.8418,0.18598 -0.32302,0.18598 -0.61667,0.69498 -0.19577,0.34259 -0.61667,1.63466 l -3.7,10.6987 h -0.39154 l -3.02461,-8.48653 -3.00503,8.48653 h -0.35238 l -3.94472,-11.02172 q -0.44048,-1.23333 -0.55794,-1.45847 -0.19576,-0.37196 -0.53836,-0.54815 -0.3328,-0.18598 -0.91032,-0.18598 v -0.36217 h 4.91377 v 0.36217 h -0.23492 q -0.51879,0 -0.79286,0.23493 -0.27408,0.23492 -0.27408,0.56772 0,0.34259 0.43069,1.57593 l 2.6135,7.44896 2.20239,-6.33308 -0.39154,-1.11588 -0.31323,-0.89074 q -0.20555,-0.48942 -0.46005,-0.86138 -0.12725,-0.18598 -0.31323,-0.31323 -0.24471,-0.17619 -0.48942,-0.2545 -0.18598,-0.0587 -0.5873,-0.0587 v -0.36217 h 5.16826 v 0.36217 h -0.35238 q -0.54815,0 -0.80265,0.23493 -0.25449,0.23492 -0.25449,0.63624 0,0.49921 0.44047,1.74233 l 2.54498,7.21404 2.5254,-7.31192 q 0.43069,-1.21376 0.43069,-1.6836 0,-0.22514 -0.14682,-0.4209 -0.13704,-0.19577 -0.35239,-0.27408 -0.37195,-0.13704 -0.96904,-0.13704 v -0.36217 z"
         id="path2112" />
      <path
         d="m 144.85435,155.67757 v 7.13573 q 0,0.49921 0.0685,0.66561 0.0783,0.1664 0.23492,0.24471 0.15662,0.0881 0.56773,0.0881 v 0.21534 h -2.63307 v -0.21534 q 0.37196,0 0.4992,-0.0783 0.13704,-0.0685 0.21535,-0.24471 0.0783,-0.17619 0.0783,-0.6754 v -4.8844 q 0,-0.91032 -0.0489,-1.11587 -0.0392,-0.21535 -0.12725,-0.29366 -0.0881,-0.0783 -0.23492,-0.0783 -0.14682,0 -0.38174,0.0979 l -0.0979,-0.20556 1.59551,-0.65582 z"
         id="path2114" />
    </g>
    <g
       aria-label="4-DWₗ"
       id="text1034-7-2"
       style="font-size:20.0466px;font-family:'Times New Roman';-inkscape-font-specification:'Times New Roman, Normal';stroke-width:8.11785">
      <path
         d="m 363.62862,157.41012 v 1.38995 h -1.78149 v 3.50424 h -1.61508 v -3.50424 h -5.61853 v -1.25292 l 6.15689,-8.78996 h 1.07672 v 8.65293 z m -3.39657,0 v -6.58758 l -4.65927,6.58758 z"
         id="path2138" />
      <path
         d="m 365.13603,157.06752 h 5.06059 v 1.47805 h -5.06059 z"
         id="path2140" />
      <path
         d="m 371.34186,162.30431 v -0.36217 h 0.49921 q 0.8418,0 1.19418,-0.53836 0.21534,-0.32302 0.21534,-1.44868 v -8.57463 q 0,-1.24312 -0.27407,-1.55635 -0.38175,-0.43069 -1.13545,-0.43069 h -0.49921 v -0.36217 h 5.40319 q 2.97566,0 4.52223,0.6754 1.55635,0.6754 2.49603,2.25133 0.94948,1.57593 0.94948,3.64128 0,2.77011 -1.6836,4.6299 -1.88916,2.07514 -5.75557,2.07514 z m 3.7881,-0.95927 q 1.24313,0.27408 2.08493,0.27408 2.2709,0 3.76852,-1.59551 1.49763,-1.5955 1.49763,-4.32646 0,-2.75053 -1.49763,-4.33625 -1.49762,-1.58572 -3.84683,-1.58572 -0.88095,0 -2.00662,0.28386 z"
         id="path2142" />
      <path
         d="m 404.2406,149.03126 v 0.36217 q -0.51878,0 -0.8418,0.18598 -0.32301,0.18598 -0.61667,0.69498 -0.19576,0.34259 -0.61666,1.63466 l -3.70001,10.6987 h -0.39154 l -3.02461,-8.48653 -3.00503,8.48653 h -0.35238 l -3.94472,-11.02172 q -0.44047,-1.23333 -0.55793,-1.45847 -0.19577,-0.37196 -0.53836,-0.54815 -0.33281,-0.18598 -0.91032,-0.18598 v -0.36217 h 4.91376 v 0.36217 h -0.23492 q -0.51878,0 -0.79286,0.23493 -0.27407,0.23492 -0.27407,0.56772 0,0.34259 0.43069,1.57593 l 2.61349,7.44896 2.20239,-6.33308 -0.39154,-1.11588 -0.31322,-0.89074 q -0.20556,-0.48942 -0.46006,-0.86138 -0.12725,-0.18598 -0.31323,-0.31323 -0.24471,-0.17619 -0.48941,-0.2545 -0.18598,-0.0587 -0.58731,-0.0587 v -0.36217 h 5.16827 v 0.36217 h -0.35238 q -0.54815,0 -0.80265,0.23493 -0.2545,0.23492 -0.2545,0.63624 0,0.49921 0.44048,1.74233 l 2.54498,7.21404 2.5254,-7.31192 q 0.43069,-1.21376 0.43069,-1.6836 0,-0.22514 -0.14683,-0.4209 -0.13704,-0.19577 -0.35238,-0.27408 -0.37196,-0.13704 -0.96905,-0.13704 v -0.36217 z"
         id="path2144" />
      <path
         d="m 406.61918,155.67757 v 7.13573 q 0,0.49921 0.0685,0.66561 0.0783,0.1664 0.23492,0.24471 0.15661,0.0881 0.56772,0.0881 v 0.21534 h -2.63307 v -0.21534 q 0.37196,0 0.49921,-0.0783 0.13704,-0.0685 0.21534,-0.24471 0.0783,-0.17619 0.0783,-0.6754 v -4.8844 q 0,-0.91032 -0.0489,-1.11587 -0.0392,-0.21535 -0.12725,-0.29366 -0.0881,-0.0783 -0.23492,-0.0783 -0.14683,0 -0.38175,0.0979 l -0.0979,-0.20556 1.5955,-0.65582 z"
         id="path2146" />
    </g>
    <g
       aria-label="DWᵤ"
       id="text1034-7-1"
       style="font-size:20.0466px;font-family:'Times New Roman';-inkscape-font-specification:'Times New Roman, Normal';stroke-width:8.11785">
      <path
         d="m 191.2563,162.25537 v -0.36217 h 0.49921 q 0.8418,0 1.19418,-0.53836 0.21535,-0.32302 0.21535,-1.44868 v -8.57462 q 0,-1.24312 -0.27408,-1.55635 -0.38174,-0.43069 -1.13545,-0.43069 h -0.49921 v -0.36217 h 5.40319 q 2.97567,0 4.52223,0.6754 1.55635,0.6754 2.49604,2.25132 0.94947,1.57593 0.94947,3.64128 0,2.77011 -1.6836,4.6299 -1.88916,2.07514 -5.75557,2.07514 z m 3.78811,-0.95926 q 1.24312,0.27407 2.08492,0.27407 2.27091,0 3.76853,-1.5955 1.49762,-1.59551 1.49762,-4.32646 0,-2.75054 -1.49762,-4.33626 -1.49762,-1.58571 -3.84683,-1.58571 -0.88096,0 -2.00662,0.28386 z"
         id="path2120" />
      <path
         d="m 224.15505,148.98233 v 0.36217 q -0.51879,0 -0.8418,0.18598 -0.32302,0.18598 -0.61667,0.69497 -0.19577,0.3426 -0.61667,1.63466 l -3.70001,10.6987 h -0.39153 l -3.02461,-8.48652 -3.00503,8.48652 h -0.35239 l -3.94471,-11.02171 q -0.44048,-1.23334 -0.55794,-1.45847 -0.19577,-0.37196 -0.53836,-0.54815 -0.33281,-0.18598 -0.91032,-0.18598 v -0.36217 h 4.91377 v 0.36217 h -0.23492 q -0.51879,0 -0.79286,0.23492 -0.27408,0.23492 -0.27408,0.56773 0,0.34259 0.43069,1.57593 l 2.6135,7.44895 2.20238,-6.33308 -0.39153,-1.11587 -0.31323,-0.89075 q -0.20556,-0.48942 -0.46005,-0.86137 -0.12725,-0.18598 -0.31323,-0.31323 -0.24471,-0.17619 -0.48942,-0.2545 -0.18598,-0.0587 -0.5873,-0.0587 v -0.36217 h 5.16826 v 0.36217 h -0.35238 q -0.54815,0 -0.80265,0.23492 -0.2545,0.23492 -0.2545,0.63624 0,0.49921 0.44048,1.74234 l 2.54498,7.21403 2.5254,-7.31192 q 0.43069,-1.21376 0.43069,-1.6836 0,-0.22513 -0.14683,-0.4209 -0.13703,-0.19577 -0.35238,-0.27407 -0.37196,-0.13704 -0.96905,-0.13704 v -0.36217 z"
         id="path2122" />
      <path
         d="m 230.58601,163.4104 -1.60529,0.66561 h -0.26429 v -1.13545 q -1.04736,1.13545 -1.83043,1.13545 -0.94947,0 -1.24312,-0.9299 -0.12725,-0.40132 -0.12725,-1.16481 v -2.39816 q 0,-0.59709 -0.32302,-0.7537 -0.1664,-0.0881 -0.5873,-0.0783 v -0.21534 h 1.87937 v 3.60212 q 0,1.21376 0.90053,1.21376 0.57752,0 1.33122,-0.76349 V 159.544 q 0,-0.47963 -0.18598,-0.62646 -0.17619,-0.15661 -0.6754,-0.1664 v -0.21534 h 1.83043 v 3.25953 q 0,1.27249 0.18598,1.4291 0.10767,0.0881 0.22513,0.0881 0.16641,0 0.41111,-0.10768 z"
         id="path2124" />
    </g>
    <g
       aria-label="4-DWᵤ"
       id="text1034-7-1-4"
       style="font-size:20.0466px;font-family:'Times New Roman';-inkscape-font-specification:'Times New Roman, Normal';stroke-width:8.11785">
      <path
         d="m 279.86144,157.36118 v 1.38995 h -1.78149 v 3.50424 h -1.61508 v -3.50424 h -5.61853 v -1.25291 l 6.15689,-8.78997 h 1.07672 v 8.65293 z m -3.39657,0 v -6.58758 l -4.65927,6.58758 z"
         id="path2127" />
      <path
         d="m 281.36885,157.01859 h 5.06059 v 1.47804 h -5.06059 z"
         id="path2129" />
      <path
         d="m 287.57468,162.25537 v -0.36217 h 0.49921 q 0.8418,0 1.19418,-0.53836 0.21534,-0.32302 0.21534,-1.44868 v -8.57462 q 0,-1.24312 -0.27407,-1.55635 -0.38175,-0.43069 -1.13545,-0.43069 h -0.49921 v -0.36217 h 5.40318 q 2.97567,0 4.52224,0.6754 1.55635,0.6754 2.49603,2.25132 0.94948,1.57593 0.94948,3.64128 0,2.77011 -1.68361,4.6299 -1.88915,2.07514 -5.75556,2.07514 z m 3.7881,-0.95926 q 1.24313,0.27407 2.08493,0.27407 2.2709,0 3.76852,-1.5955 1.49762,-1.59551 1.49762,-4.32646 0,-2.75054 -1.49762,-4.33626 -1.49762,-1.58571 -3.84683,-1.58571 -0.88095,0 -2.00662,0.28386 z"
         id="path2131" />
      <path
         d="m 320.47342,148.98233 v 0.36217 q -0.51878,0 -0.8418,0.18598 -0.32302,0.18598 -0.61667,0.69497 -0.19576,0.3426 -0.61666,1.63466 l -3.70001,10.6987 h -0.39154 l -3.02461,-8.48652 -3.00503,8.48652 h -0.35238 L 303.98,151.5371 q -0.44047,-1.23334 -0.55793,-1.45847 -0.19577,-0.37196 -0.53837,-0.54815 -0.3328,-0.18598 -0.91031,-0.18598 v -0.36217 h 4.91376 v 0.36217 h -0.23492 q -0.51878,0 -0.79286,0.23492 -0.27407,0.23492 -0.27407,0.56773 0,0.34259 0.43069,1.57593 l 2.61349,7.44895 2.20239,-6.33308 -0.39154,-1.11587 -0.31323,-0.89075 q -0.20555,-0.48942 -0.46005,-0.86137 -0.12725,-0.18598 -0.31323,-0.31323 -0.24471,-0.17619 -0.48942,-0.2545 -0.18598,-0.0587 -0.5873,-0.0587 v -0.36217 h 5.16827 v 0.36217 h -0.35239 q -0.54815,0 -0.80264,0.23492 -0.2545,0.23492 -0.2545,0.63624 0,0.49921 0.44048,1.74234 l 2.54497,7.21403 2.52541,-7.31192 q 0.43068,-1.21376 0.43068,-1.6836 0,-0.22513 -0.14682,-0.4209 -0.13704,-0.19577 -0.35238,-0.27407 -0.37196,-0.13704 -0.96905,-0.13704 v -0.36217 z"
         id="path2133" />
      <path
         d="m 326.90439,163.4104 -1.6053,0.66561 h -0.26428 v -1.13545 q -1.04736,1.13545 -1.83043,1.13545 -0.94947,0 -1.24313,-0.9299 -0.12724,-0.40132 -0.12724,-1.16481 v -2.39816 q 0,-0.59709 -0.32302,-0.7537 -0.1664,-0.0881 -0.5873,-0.0783 v -0.21534 h 1.87937 v 3.60212 q 0,1.21376 0.90053,1.21376 0.57751,0 1.33122,-0.76349 V 159.544 q 0,-0.47963 -0.18598,-0.62646 -0.17619,-0.15661 -0.6754,-0.1664 v -0.21534 h 1.83043 v 3.25953 q 0,1.27249 0.18597,1.4291 0.10768,0.0881 0.22514,0.0881 0.1664,0 0.41111,-0.10768 z"
         id="path2135" />
    </g>
    <g
       aria-label="4"
       id="text1034-5"
       style="font-size:20.0466px;font-family:'Times New Roman';-inkscape-font-specification:'Times New Roman, Normal';stroke-width:8.11785">
      <path
         d="m 464.01509,157.80166 v 1.38995 h -1.78148 v 3.50424 h -1.61508 v -3.50424 H 455 v -1.25292 l 6.15689,-8.78996 h 1.07672 v 8.65293 z m -3.39656,0 v -6.58758 l -4.65927,6.58758 z"
         id="path2149" />
    </g>
    <path
       style="fill:#000000;stroke:#000000;stroke-width:2.92117;stroke-dasharray:none;stroke-opacity:1"
       d="m 125.46058,92.287163 c 0,111.585647 0,0 0,0 z"
       id="path1225" />
    <path
       style="fill:#000000;stroke:#000000;stroke-width:2.92117;stroke-dasharray:none;stroke-opacity:1"
       d="m 209.46058,92.287163 c 0,111.585647 0,0 0,0 z"
       id="path1225-9" />
    <path
       style="fill:#000000;stroke:#000000;stroke-width:2.92117;stroke-dasharray:none;stroke-opacity:1"
       d="m 293.46058,92.287163 c 0,111.585647 0,0 0,0 z"
       id="path1225-90" />
    <path
       style="fill:#000000;stroke:#000000;stroke-width:2.92117;stroke-dasharray:none;stroke-opacity:1"
       d="m 377.46058,92.287163 c 0,111.585647 0,0 0,0 z"
       id="path1225-0" />
    <g
       aria-label="нет
автокорреляции"
       id="text1358-4-8"
       style="font-size:11.3441px;font-family:'Times New Roman';-inkscape-font-specification:'Times New Roman, Normal';stroke-width:2.09116">
      <path
         d="m 215.06584,108.58698 h 2.19349 v -1.07459 q 0,-0.4819 -0.0388,-0.62592 -0.0388,-0.14955 -0.19386,-0.24926 -0.14956,-0.10524 -0.5373,-0.10524 v -0.21049 h 2.45383 v 0.21049 q -0.34343,0 -0.50406,0.0776 -0.1551,0.0775 -0.21049,0.2271 -0.0554,0.14402 -0.0554,0.67577 v 2.69201 q 0,0.4819 0.0388,0.637 0.0443,0.15509 0.20494,0.2548 0.16064,0.0942 0.52622,0.0942 v 0.20495 h -2.45383 v -0.20495 q 0.45975,0 0.61484,-0.16617 0.1551,-0.17171 0.1551,-0.81979 v -1.25738 h -2.19349 v 1.25738 q 0,0.4819 0.0388,0.637 0.0443,0.15509 0.20495,0.2548 0.16064,0.0942 0.52622,0.0942 v 0.20495 h -2.45383 v -0.20495 q 0.49298,0 0.63146,-0.17725 0.13848,-0.18279 0.13848,-0.80871 v -2.69201 q 0,-0.4819 -0.0443,-0.637 -0.0388,-0.15509 -0.1994,-0.24926 -0.16064,-0.0942 -0.52622,-0.0942 v -0.21049 h 2.45383 v 0.21049 q -0.34343,0 -0.50406,0.0776 -0.1551,0.0775 -0.21049,0.2271 -0.0554,0.14402 -0.0554,0.67577 z"
         id="path2214" />
      <path
         d="m 220.40554,108.23248 q -0.006,1.12998 0.54838,1.77251 0.55391,0.64254 1.30169,0.64254 0.49852,0 0.8641,-0.27142 0.37112,-0.27695 0.62038,-0.94165 l 0.17171,0.11079 q -0.11632,0.75885 -0.67577,1.38477 -0.55945,0.62038 -1.4014,0.62038 -0.91395,0 -1.56756,-0.709 -0.64808,-0.71455 -0.64808,-1.91653 0,-1.3017 0.66469,-2.02732 0.67024,-0.73116 1.67835,-0.73116 0.85303,0 1.4014,0.56499 0.54837,0.55945 0.54837,1.5011 z m 0,-0.32127 h 2.34859 q -0.0277,-0.48744 -0.11632,-0.68685 -0.13848,-0.31019 -0.41544,-0.48744 -0.27141,-0.17725 -0.57053,-0.17725 -0.45974,0 -0.82532,0.36004 -0.36005,0.3545 -0.42098,0.9915 z"
         id="path2216" />
      <path
         d="m 224.51003,106.32148 h 4.38697 l 0.22157,1.3737 h -0.24926 q -0.0665,-0.41543 -0.22157,-0.64253 -0.15509,-0.22711 -0.3545,-0.29912 -0.19941,-0.072 -0.68131,-0.072 h -0.44313 v 3.52287 q 0,0.56499 0.0665,0.72008 0.072,0.14956 0.2271,0.19941 0.1551,0.0498 0.70901,0.0665 v 0.20495 h -2.75848 v -0.20495 q 0.53176,-0.0111 0.68131,-0.17171 0.1551,-0.16063 0.1551,-0.81425 v -3.52287 h -0.45421 q -0.47636,0 -0.64808,0.0609 -0.17171,0.0554 -0.33234,0.27695 -0.1551,0.21603 -0.26588,0.67577 h -0.24926 z"
         id="path2218" />
      <path
         d="m 216.35645,124.84427 q -0.78101,0.60376 -0.98042,0.69793 -0.29911,0.13848 -0.637,0.13848 -0.52621,0 -0.86964,-0.36004 -0.33788,-0.36005 -0.33788,-0.94719 0,-0.37112 0.16617,-0.64254 0.2271,-0.37666 0.78655,-0.70901 0.56499,-0.33234 1.87222,-0.80871 v -0.1994 q 0,-0.75886 -0.24372,-1.04136 -0.23818,-0.28249 -0.69793,-0.28249 -0.34896,0 -0.55391,0.18833 -0.21048,0.18833 -0.21048,0.43205 l 0.0111,0.32127 q 0,0.2548 -0.13294,0.39327 -0.1274,0.13848 -0.33789,0.13848 -0.20495,0 -0.33788,-0.14402 -0.1274,-0.14401 -0.1274,-0.39327 0,-0.47637 0.48744,-0.87518 0.48744,-0.39882 1.36816,-0.39882 0.67577,0 1.10782,0.22711 0.32681,0.17171 0.4819,0.53729 0.0997,0.23818 0.0997,0.97488 v 1.72267 q 0,0.72562 0.0277,0.89179 0.0277,0.16064 0.0886,0.21603 0.0665,0.0554 0.14955,0.0554 0.0886,0 0.1551,-0.0388 0.11632,-0.072 0.44867,-0.40436 v 0.31019 q -0.62038,0.83087 -1.18537,0.83087 -0.27142,0 -0.43205,-0.18833 -0.16064,-0.18833 -0.16618,-0.64254 z m 0,-0.36004 v -1.93315 q -0.8364,0.33235 -1.08012,0.47082 -0.43759,0.24373 -0.62592,0.5096 -0.18833,0.26588 -0.18833,0.58161 0,0.39882 0.23818,0.66469 0.23818,0.26034 0.54837,0.26034 0.42097,0 1.10782,-0.55391 z"
         id="path2220" />
      <path
         d="m 221.73493,122.8945 q 1.39032,0.28804 1.39032,1.3017 0,0.69238 -0.58161,1.03581 -0.57607,0.34342 -1.61188,0.34342 h -2.50368 v -0.20494 q 0.49298,0 0.62038,-0.18279 0.13294,-0.18833 0.13294,-0.80317 v -2.69201 q 0,-0.59823 -0.0609,-0.70347 -0.0554,-0.10524 -0.18279,-0.18833 -0.12186,-0.0886 -0.5096,-0.0886 v -0.21048 h 2.33751 q 0.67577,0 1.0912,0.10524 0.42097,0.10524 0.68685,0.41543 0.27142,0.3102 0.27142,0.75332 0,0.86411 -1.08013,1.1189 z m -1.63404,-0.12739 q 0.24372,0.006 0.29358,0.006 0.75885,0 1.09674,-0.28803 0.33789,-0.29357 0.33789,-0.70901 0,-0.4819 -0.34343,-0.69792 -0.34342,-0.21603 -1.09674,-0.21603 h -0.28804 z m 0,2.35966 q 0.27696,0.0886 0.65916,0.0886 0.65915,0 0.98042,-0.28803 0.32127,-0.28804 0.32127,-0.74224 0,-0.5096 -0.41544,-0.78102 -0.41543,-0.27141 -1.15213,-0.27141 -0.18279,0 -0.39328,0.0111 z"
         id="path2222" />
      <path
         d="m 223.51299,120.50161 h 4.38697 l 0.22157,1.3737 h -0.24926 q -0.0665,-0.41544 -0.22157,-0.64254 -0.15509,-0.2271 -0.3545,-0.29911 -0.19941,-0.072 -0.68131,-0.072 h -0.44313 v 3.52288 q 0,0.56498 0.0665,0.72008 0.072,0.14956 0.2271,0.19941 0.1551,0.0499 0.70901,0.0665 v 0.20494 h -2.75848 v -0.20494 q 0.53176,-0.0111 0.68131,-0.17172 0.1551,-0.16063 0.1551,-0.81424 v -3.52288 h -0.45421 q -0.47636,0 -0.64808,0.0609 -0.17171,0.0554 -0.33234,0.27696 -0.1551,0.21602 -0.26588,0.67577 h -0.24926 z"
         id="path2224" />
      <path
         d="m 230.88,120.35205 q 1.15214,0 1.85007,0.87518 0.59268,0.74778 0.59268,1.71713 0,0.68131 -0.32681,1.37924 -0.3268,0.69792 -0.90287,1.05243 -0.57053,0.3545 -1.274,0.3545 -1.14659,0 -1.82237,-0.91395 -0.57052,-0.76994 -0.57052,-1.72821 0,-0.69792 0.34342,-1.38477 0.34897,-0.69239 0.91395,-1.0192 0.56499,-0.33235 1.19645,-0.33235 z m -0.17171,0.36004 q -0.29357,0 -0.59268,0.17726 -0.29358,0.17171 -0.47637,0.6093 -0.18279,0.43759 -0.18279,1.12444 0,1.10782 0.43759,1.91099 0.44313,0.80317 1.16321,0.80317 0.5373,0 0.88626,-0.44313 0.34897,-0.44313 0.34897,-1.52325 0,-1.35155 -0.58161,-2.12702 -0.39328,-0.53176 -1.00258,-0.53176 z"
         id="path2226" />
      <path
         d="m 239.16097,125.57543 h -1.49556 q -0.69792,-1.01365 -1.26291,-2.07716 -0.13294,-0.24372 -0.24372,-0.36004 -0.10525,-0.12186 -0.29358,-0.12186 -0.0665,0 -0.21048,0.0111 v 1.35709 q 0,0.54837 0.0609,0.70346 0.0665,0.14956 0.23264,0.21603 0.16617,0.0665 0.55945,0.0665 v 0.20494 h -2.53691 v -0.20494 q 0.49298,0 0.63146,-0.17725 0.13847,-0.18279 0.13847,-0.80871 v -2.69201 q 0,-0.59269 -0.0609,-0.69793 -0.0609,-0.11078 -0.18833,-0.19387 -0.1274,-0.0886 -0.52067,-0.0886 v -0.21048 h 2.53691 v 0.21048 q -0.45975,0 -0.57053,0.0665 -0.10524,0.0665 -0.19387,0.16618 -0.0886,0.0942 -0.0886,0.74778 v 0.99704 q 0.1274,0.0111 0.17171,0.0111 0.33789,0 0.63146,-0.18833 0.29911,-0.19387 0.53175,-0.81425 0.21603,-0.58715 0.35451,-0.7921 0.14401,-0.20494 0.39327,-0.33234 0.2548,-0.13294 0.53176,-0.13294 0.29911,0 0.47636,0.14402 0.17725,0.14401 0.17725,0.37665 0,0.19387 -0.1274,0.33235 -0.1274,0.13294 -0.3545,0.13294 -0.12186,0 -0.30465,-0.0665 -0.23264,-0.0831 -0.3545,-0.0831 -0.2548,0 -0.42098,0.43759 -0.18833,0.50406 -0.27695,0.65362 -0.0886,0.14402 -0.33789,0.38774 0.17171,0.0499 0.37112,0.2548 0.20495,0.20494 0.75332,1.16875 0.43759,0.76993 0.65362,0.97488 0.22156,0.20495 0.63699,0.21603 z"
         id="path2228" />
      <path
         d="m 241.4874,120.35205 q 1.15214,0 1.85006,0.87518 0.59269,0.74778 0.59269,1.71713 0,0.68131 -0.32681,1.37924 -0.32681,0.69792 -0.90287,1.05243 -0.57053,0.3545 -1.274,0.3545 -1.14659,0 -1.82237,-0.91395 -0.57052,-0.76994 -0.57052,-1.72821 0,-0.69792 0.34342,-1.38477 0.34896,-0.69239 0.91395,-1.0192 0.56499,-0.33235 1.19645,-0.33235 z m -0.17171,0.36004 q -0.29357,0 -0.59269,0.17726 -0.29357,0.17171 -0.47636,0.6093 -0.18279,0.43759 -0.18279,1.12444 0,1.10782 0.43759,1.91099 0.44313,0.80317 1.16321,0.80317 0.5373,0 0.88626,-0.44313 0.34897,-0.44313 0.34897,-1.52325 0,-1.35155 -0.58161,-2.12702 -0.39328,-0.53176 -1.00258,-0.53176 z"
         id="path2230" />
      <path
         d="m 244.31235,121.00567 1.56203,-0.63146 h 0.21048 v 1.18537 q 0.39328,-0.67023 0.78656,-0.93611 0.39881,-0.27142 0.8364,-0.27142 0.7644,0 1.274,0.59823 0.62592,0.73116 0.62592,1.90545 0,1.31277 -0.75332,2.17133 -0.62038,0.70347 -1.56203,0.70347 -0.4099,0 -0.70901,-0.11632 -0.22156,-0.0831 -0.49852,-0.33235 v 1.54541 q 0,0.52068 0.0609,0.65916 0.0665,0.14401 0.22157,0.2271 0.16063,0.0831 0.57606,0.0831 v 0.20495 h -2.65877 v -0.20495 h 0.13848 q 0.30465,0.006 0.52068,-0.11632 0.10524,-0.0609 0.16063,-0.19941 0.0609,-0.13294 0.0609,-0.68685 v -4.79687 q 0,-0.49298 -0.0443,-0.62592 -0.0443,-0.13294 -0.14402,-0.19941 -0.0942,-0.0665 -0.26034,-0.0665 -0.13294,0 -0.33788,0.0776 z m 1.77251,0.88072 v 1.89437 q 0,0.61484 0.0499,0.80871 0.0775,0.32127 0.37666,0.56499 0.30466,0.24372 0.7644,0.24372 0.55391,0 0.89734,-0.43205 0.44867,-0.56499 0.44867,-1.58972 0,-1.16322 -0.5096,-1.78914 -0.35451,-0.43205 -0.84195,-0.43205 -0.26587,0 -0.52621,0.13294 -0.19941,0.0997 -0.65916,0.59823 z"
         id="path2232" />
      <path
         d="m 249.9844,121.00567 1.56203,-0.63146 h 0.21048 v 1.18537 q 0.39328,-0.67023 0.78656,-0.93611 0.39881,-0.27142 0.8364,-0.27142 0.7644,0 1.274,0.59823 0.62592,0.73116 0.62592,1.90545 0,1.31277 -0.75332,2.17133 -0.62038,0.70347 -1.56203,0.70347 -0.40989,0 -0.70901,-0.11632 -0.22156,-0.0831 -0.49852,-0.33235 v 1.54541 q 0,0.52068 0.0609,0.65916 0.0665,0.14401 0.22157,0.2271 0.16063,0.0831 0.57607,0.0831 v 0.20495 h -2.65878 v -0.20495 h 0.13848 q 0.30465,0.006 0.52068,-0.11632 0.10524,-0.0609 0.16063,-0.19941 0.0609,-0.13294 0.0609,-0.68685 v -4.79687 q 0,-0.49298 -0.0443,-0.62592 -0.0443,-0.13294 -0.14402,-0.19941 -0.0942,-0.0665 -0.26034,-0.0665 -0.13294,0 -0.33788,0.0776 z m 1.77251,0.88072 v 1.89437 q 0,0.61484 0.0499,0.80871 0.0775,0.32127 0.37665,0.56499 0.30466,0.24372 0.7644,0.24372 0.55391,0 0.89734,-0.43205 0.44867,-0.56499 0.44867,-1.58972 0,-1.16322 -0.5096,-1.78914 -0.35451,-0.43205 -0.84195,-0.43205 -0.26587,0 -0.52621,0.13294 -0.19941,0.0997 -0.65916,0.59823 z"
         id="path2234" />
      <path
         d="m 256.87505,122.4126 q -0.006,1.12998 0.54837,1.77252 0.55392,0.64253 1.3017,0.64253 0.49852,0 0.8641,-0.27141 0.37112,-0.27696 0.62038,-0.94165 l 0.17171,0.11078 q -0.11632,0.75886 -0.67577,1.38478 -0.55945,0.62038 -1.4014,0.62038 -0.91395,0 -1.56757,-0.70901 -0.64807,-0.71454 -0.64807,-1.91653 0,-1.30169 0.66469,-2.02731 0.67023,-0.73117 1.67835,-0.73117 0.85303,0 1.4014,0.56499 0.54837,0.55945 0.54837,1.5011 z m 0,-0.32127 h 2.34859 q -0.0277,-0.48744 -0.11633,-0.68685 -0.13847,-0.31019 -0.41543,-0.48744 -0.27142,-0.17725 -0.57053,-0.17725 -0.45974,0 -0.82533,0.36004 -0.36004,0.35451 -0.42097,0.9915 z"
         id="path2236" />
      <path
         d="m 261.57776,120.50161 h 4.53653 v 0.21048 q -0.37666,0 -0.50406,0.0776 -0.12186,0.072 -0.19387,0.18279 -0.072,0.11079 -0.072,0.72009 v 2.69201 q 0,0.58714 0.0609,0.70346 0.0609,0.11078 0.18832,0.19941 0.13294,0.0831 0.52068,0.0831 v 0.20494 h -2.62554 v -0.20494 q 0.42651,0 0.58715,-0.0443 0.16617,-0.0443 0.26034,-0.21048 0.0942,-0.17171 0.0942,-0.73116 v -3.52288 h -1.68943 v 2.1381 q 0,1.21306 -0.11078,1.70604 -0.10524,0.48745 -0.42651,0.72563 -0.31573,0.23264 -0.72562,0.23264 -0.70901,0 -0.70901,-0.58715 0,-0.1994 0.11078,-0.3268 0.11632,-0.1274 0.29911,-0.1274 0.19387,0 0.36005,0.16063 0.21602,0.21049 0.3268,0.21049 0.24926,0 0.36005,-0.41544 0.11632,-0.42097 0.11632,-1.46786 v -1.1189 q 0,-0.8641 -0.1274,-1.05243 -0.12186,-0.18833 -0.637,-0.22711 z"
         id="path2238" />
      <path
         d="m 271.32659,120.50161 v 0.21048 q -0.34342,0 -0.5096,0.0942 -0.16063,0.0942 -0.21048,0.23818 -0.0498,0.14402 -0.0498,0.64808 v 2.69201 q 0,0.4819 0.0443,0.63699 0.0443,0.14956 0.21048,0.24926 0.17172,0.0997 0.51514,0.0997 v 0.20494 h -2.45382 v -0.20494 q 0.45974,0 0.61484,-0.16618 0.15509,-0.17171 0.15509,-0.81978 v -1.10229 l -0.2271,0.006 q -0.0498,0 -0.17725,-0.006 l -1.61742,2.29319 h -1.26292 v -0.20494 q 0.27695,0 0.3822,-0.072 0.11078,-0.0776 0.40435,-0.49298 l 1.18537,-1.67281 q -1.27399,-0.44313 -1.27399,-1.35709 0,-0.51513 0.4542,-0.89179 0.45975,-0.3822 1.56203,-0.3822 z m -1.68389,0.42097 q -0.21602,-0.0609 -0.40989,-0.0609 -0.55945,0 -0.83641,0.27696 -0.27695,0.27695 -0.27695,0.65915 0,0.48744 0.39327,0.80871 0.39328,0.32127 0.9915,0.32127 0.0609,0 0.13848,-0.0111 z"
         id="path2240" />
      <path
         d="m 277.39746,125.37049 v 1.61188 h -0.20495 q -0.0166,-0.64808 -0.42651,-1.03028 -0.40435,-0.37666 -1.4734,-0.37666 h -3.45641 v -0.20494 q 0.49298,0 0.63146,-0.17725 0.13848,-0.18279 0.13848,-0.80871 v -2.69201 q 0,-0.59269 -0.0609,-0.69793 -0.0609,-0.11078 -0.18833,-0.19387 -0.1274,-0.0886 -0.52068,-0.0886 v -0.21048 h 2.45383 v 0.21048 q -0.37112,0 -0.49852,0.0776 -0.1274,0.072 -0.19941,0.18279 -0.072,0.11079 -0.072,0.72009 v 2.86372 q 0,0.4819 0.0831,0.57053 0.0886,0.0886 0.55391,0.0886 h 0.89734 q 0.51513,0 0.58714,-0.0942 0.072,-0.0942 0.072,-0.6093 v -2.81941 q 0,-0.52622 -0.0554,-0.67577 -0.0554,-0.1551 -0.21603,-0.22711 -0.16063,-0.0776 -0.49852,-0.0776 v -0.21048 h 2.45383 v 0.21048 q -0.37112,0 -0.49852,0.0776 -0.1274,0.072 -0.19941,0.18279 -0.072,0.11079 -0.072,0.72009 v 2.60892 q 0,0.71454 0.1274,0.88072 0.1274,0.16617 0.64254,0.18833 z"
         id="path2242" />
      <path
         d="m 279.59095,124.01341 2.19349,-2.53692 q -0.0111,-0.42651 -0.16064,-0.59268 -0.14955,-0.16618 -0.51513,-0.17172 v -0.21048 h 2.35966 v 0.21048 q -0.37112,0 -0.49852,0.0776 -0.1274,0.072 -0.19941,0.18279 -0.072,0.11079 -0.072,0.72009 v 2.69201 q 0,0.58714 0.0609,0.70346 0.0609,0.11078 0.18833,0.19941 0.13294,0.0831 0.52068,0.0831 v 0.20494 h -2.45383 v -0.20494 q 0.45975,0 0.61484,-0.16618 0.1551,-0.17171 0.1551,-0.81978 v -2.38736 l -2.19349,2.54245 q 0.0111,0.47083 0.13294,0.64808 0.12186,0.17725 0.52621,0.18279 v 0.20494 h -2.34304 v -0.20494 q 0.49298,0 0.63146,-0.17725 0.13848,-0.18279 0.13848,-0.80871 v -2.69201 q 0,-0.59269 -0.0609,-0.69793 -0.0609,-0.11078 -0.18833,-0.19387 -0.1274,-0.0886 -0.52068,-0.0886 v -0.21048 h 2.45383 v 0.21048 q -0.37113,0 -0.49852,0.0776 -0.1274,0.072 -0.19941,0.18279 -0.072,0.11079 -0.072,0.72009 z"
         id="path2244" />
      <path
         d="m 285.66182,124.01341 2.19349,-2.53692 q -0.0111,-0.42651 -0.16064,-0.59268 -0.14955,-0.16618 -0.51514,-0.17172 v -0.21048 h 2.35967 v 0.21048 q -0.37112,0 -0.49852,0.0776 -0.1274,0.072 -0.19941,0.18279 -0.072,0.11079 -0.072,0.72009 v 2.69201 q 0,0.58714 0.0609,0.70346 0.0609,0.11078 0.18833,0.19941 0.13294,0.0831 0.52068,0.0831 v 0.20494 h -2.45383 v -0.20494 q 0.45975,0 0.61484,-0.16618 0.1551,-0.17171 0.1551,-0.81978 v -2.38736 l -2.19349,2.54245 q 0.0111,0.47083 0.13294,0.64808 0.12186,0.17725 0.52621,0.18279 v 0.20494 h -2.34304 v -0.20494 q 0.49298,0 0.63146,-0.17725 0.13847,-0.18279 0.13847,-0.80871 v -2.69201 q 0,-0.59269 -0.0609,-0.69793 -0.0609,-0.11078 -0.18833,-0.19387 -0.12739,-0.0886 -0.52067,-0.0886 v -0.21048 h 2.45382 v 0.21048 q -0.37112,0 -0.49852,0.0776 -0.12739,0.072 -0.1994,0.18279 -0.072,0.11079 -0.072,0.72009 z"
         id="path2246" />
    </g>
    <g
       aria-label="есть
автокорреляция"
       id="text1358-4-8-7"
       style="font-size:11.3441px;font-family:'Times New Roman';-inkscape-font-specification:'Times New Roman, Normal';stroke-width:2.09116">
      <path
         d="m 44.537139,107.89929 q -0.0055,1.12997 0.548372,1.77251 0.553911,0.64254 1.301691,0.64254 0.49852,0 0.864102,-0.27142 0.37112,-0.27695 0.62038,-0.94165 l 0.171712,0.11079 q -0.116321,0.75885 -0.675771,1.38477 -0.55945,0.62038 -1.401395,0.62038 -0.913954,0 -1.567569,-0.709 -0.648076,-0.71455 -0.648076,-1.91654 0,-1.30169 0.664694,-2.02731 0.670232,-0.73116 1.67835,-0.73116 0.853023,0 1.401395,0.56499 0.548372,0.55945 0.548372,1.5011 z m 0,-0.32127 h 2.348583 q -0.0277,-0.48744 -0.116321,-0.68685 -0.138478,-0.31019 -0.415433,-0.48744 -0.271417,-0.17726 -0.570529,-0.17726 -0.459746,0 -0.825328,0.36005 -0.360042,0.3545 -0.420972,0.9915 z"
         id="path2274" />
      <path
         d="m 53.311091,109.13451 q -0.204947,1.00258 -0.803171,1.54541 -0.598224,0.53729 -1.323847,0.53729 -0.864102,0 -1.506639,-0.72562 -0.642537,-0.72562 -0.642537,-1.96085 0,-1.19644 0.709007,-1.94422 0.714545,-0.74778 1.711585,-0.74778 0.74778,0 1.229683,0.39881 0.481902,0.39328 0.481902,0.81979 0,0.21049 -0.138477,0.34343 -0.132939,0.1274 -0.37666,0.1274 -0.326808,0 -0.492981,-0.21049 -0.09417,-0.11632 -0.127399,-0.44313 -0.0277,-0.32681 -0.221565,-0.49852 -0.193869,-0.16617 -0.537294,-0.16617 -0.553911,0 -0.891797,0.40989 -0.448668,0.54283 -0.448668,1.43463 0,0.90842 0.443129,1.60634 0.448668,0.69239 1.207527,0.69239 0.542832,0 0.974883,-0.37112 0.304651,-0.2548 0.592685,-0.92503 z"
         id="path2276" />
      <path
         d="m 53.959167,105.98829 h 4.386977 l 0.221564,1.3737 h -0.24926 q -0.06647,-0.41543 -0.221564,-0.64253 -0.155096,-0.22711 -0.354504,-0.29912 -0.199408,-0.072 -0.68131,-0.072 h -0.443129 v 3.52288 q 0,0.56499 0.06647,0.72008 0.07201,0.14956 0.227104,0.19941 0.155095,0.0498 0.709006,0.0665 v 0.20495 h -2.758477 v -0.20495 q 0.531754,-0.0111 0.68131,-0.17171 0.155095,-0.16064 0.155095,-0.81425 v -3.52288 h -0.454207 q -0.476363,0 -0.648076,0.0609 -0.171712,0.0554 -0.332346,0.27695 -0.155096,0.21603 -0.265878,0.67577 h -0.24926 z"
         id="path2278" />
      <path
         d="m 60.578406,108.24825 0.631459,-0.0111 q 2.259957,0 2.259957,1.39586 0,0.64807 -0.553911,1.04135 -0.548372,0.38774 -1.584186,0.38774 h -2.437209 v -0.20495 q 0.492981,0 0.631459,-0.17725 0.138478,-0.18279 0.138478,-0.80871 v -2.69201 q 0,-0.59268 -0.06093,-0.69793 -0.06093,-0.11078 -0.188329,-0.19387 -0.1274,-0.0886 -0.520677,-0.0886 v -0.21049 h 2.653235 v 0.21049 q -0.548372,0 -0.675772,0.0665 -0.1274,0.0609 -0.210486,0.16617 -0.08309,0.0997 -0.08309,0.74778 z m 0,2.37628 q 0.293573,0.0776 0.587146,0.0776 0.553911,0 0.897336,-0.29358 0.348964,-0.29357 0.348964,-0.74224 0,-1.06351 -1.478943,-1.06351 -0.127399,0 -0.354503,0.006 z"
         id="path2280" />
      <path
         d="m 46.558915,124.51108 q -0.781015,0.60376 -0.980423,0.69793 -0.299112,0.13848 -0.636998,0.13848 -0.526215,0 -0.86964,-0.36005 -0.337886,-0.36004 -0.337886,-0.94718 0,-0.37112 0.166173,-0.64254 0.227104,-0.37666 0.786554,-0.70901 0.564989,-0.33234 1.87222,-0.80871 v -0.19941 q 0,-0.75885 -0.243721,-1.04135 -0.238182,-0.28249 -0.697928,-0.28249 -0.348964,0 -0.553911,0.18833 -0.210487,0.18833 -0.210487,0.43205 l 0.01108,0.32127 q 0,0.2548 -0.132939,0.39327 -0.1274,0.13848 -0.337886,0.13848 -0.204947,0 -0.337886,-0.14402 -0.127399,-0.14401 -0.127399,-0.39327 0,-0.47637 0.487442,-0.87518 0.487441,-0.39882 1.36816,-0.39882 0.675772,0 1.107822,0.22711 0.326808,0.17171 0.481903,0.53729 0.0997,0.23818 0.0997,0.97488 v 1.72267 q 0,0.72562 0.0277,0.89179 0.0277,0.16064 0.08863,0.21603 0.06647,0.0554 0.149556,0.0554 0.08863,0 0.155095,-0.0388 0.116322,-0.072 0.448668,-0.40436 v 0.31019 q -0.62038,0.83087 -1.185369,0.83087 -0.271417,0 -0.432051,-0.18833 -0.160634,-0.18833 -0.166173,-0.64254 z m 0,-0.36004 v -1.93315 q -0.836406,0.33235 -1.080127,0.47082 -0.43759,0.24372 -0.62592,0.5096 -0.188329,0.26588 -0.188329,0.58161 0,0.39881 0.238181,0.66469 0.238182,0.26034 0.548372,0.26034 0.420973,0 1.107823,-0.55391 z"
         id="path2282" />
      <path
         d="m 51.937392,122.56131 q 1.390317,0.28804 1.390317,1.30169 0,0.69239 -0.581607,1.03582 -0.576067,0.34342 -1.611881,0.34342 h -2.503679 v -0.20494 q 0.492981,0 0.620381,-0.18279 0.132939,-0.18833 0.132939,-0.80318 v -2.692 q 0,-0.59823 -0.06093,-0.70347 -0.05539,-0.10524 -0.18279,-0.18833 -0.121861,-0.0886 -0.509599,-0.0886 v -0.21048 h 2.337505 q 0.675772,0 1.091205,0.10524 0.420973,0.10524 0.68685,0.41543 0.271417,0.31019 0.271417,0.75332 0,0.8641 -1.080127,1.1189 z m -1.634038,-0.1274 q 0.243721,0.006 0.293573,0.006 0.758858,0 1.096744,-0.28803 0.337886,-0.29357 0.337886,-0.70901 0,-0.4819 -0.343425,-0.69792 -0.343425,-0.21603 -1.096744,-0.21603 h -0.288034 z m 0,2.35967 q 0.276956,0.0886 0.659154,0.0886 0.659154,0 0.980423,-0.28803 0.321268,-0.28804 0.321268,-0.74224 0,-0.5096 -0.415433,-0.78102 -0.415433,-0.27141 -1.152135,-0.27141 -0.182791,0 -0.393277,0.0111 z"
         id="path2284" />
      <path
         d="m 53.715446,120.16842 h 4.386977 l 0.221564,1.3737 h -0.24926 q -0.06647,-0.41544 -0.221564,-0.64254 -0.155096,-0.2271 -0.354504,-0.29911 -0.199408,-0.072 -0.68131,-0.072 H 56.37422 v 3.52287 q 0,0.56499 0.06647,0.72009 0.07201,0.14956 0.227104,0.19941 0.155095,0.0498 0.709006,0.0665 v 0.20494 h -2.758477 v -0.20494 q 0.531754,-0.0111 0.68131,-0.17172 0.155095,-0.16063 0.155095,-0.81425 V 120.5285 H 55.00052 q -0.476363,0 -0.648076,0.0609 -0.171712,0.0554 -0.332346,0.27696 -0.155096,0.21602 -0.265878,0.67577 h -0.24926 z"
         id="path2286" />
      <path
         d="m 61.082464,120.01886 q 1.152135,0 1.850063,0.87518 0.592685,0.74778 0.592685,1.71713 0,0.68131 -0.326807,1.37923 -0.326808,0.69793 -0.902876,1.05244 -0.570528,0.3545 -1.273995,0.3545 -1.146596,0 -1.822368,-0.91395 -0.570528,-0.76994 -0.570528,-1.72821 0,-0.69793 0.343425,-1.38478 0.348964,-0.69238 0.913953,-1.01919 0.564989,-0.33235 1.196448,-0.33235 z m -0.171712,0.36004 q -0.293573,0 -0.592685,0.17726 -0.293573,0.17171 -0.476364,0.6093 -0.182791,0.43759 -0.182791,1.12444 0,1.10782 0.43759,1.91099 0.443129,0.80317 1.163214,0.80317 0.537293,0 0.886257,-0.44313 0.348964,-0.44313 0.348964,-1.52325 0,-1.35155 -0.581606,-2.12702 -0.393277,-0.53176 -1.002579,-0.53176 z"
         id="path2288" />
      <path
         d="m 69.363436,125.24224 h -1.49556 q -0.697928,-1.01365 -1.262918,-2.07716 -0.132938,-0.24372 -0.24372,-0.36005 -0.105244,-0.12186 -0.293573,-0.12186 -0.06647,0 -0.210487,0.0111 v 1.35708 q 0,0.54838 0.06093,0.70347 0.06647,0.14956 0.232642,0.21603 0.166174,0.0665 0.559451,0.0665 v 0.20494 h -2.536913 v -0.20494 q 0.49298,0 0.631458,-0.17726 0.138478,-0.18279 0.138478,-0.80871 v -2.692 q 0,-0.59269 -0.06093,-0.69793 -0.06093,-0.11078 -0.18833,-0.19387 -0.1274,-0.0886 -0.520676,-0.0886 v -0.21048 h 2.536913 v 0.21048 q -0.459747,0 -0.570529,0.0665 -0.105243,0.0665 -0.193869,0.16618 -0.08863,0.0942 -0.08863,0.74778 v 0.99704 q 0.1274,0.0111 0.171713,0.0111 0.337886,0 0.631459,-0.18833 0.299112,-0.19386 0.531754,-0.81424 0.216026,-0.58715 0.354503,-0.7921 0.144017,-0.20494 0.393277,-0.33234 0.254799,-0.13294 0.531755,-0.13294 0.299112,0 0.476364,0.14401 0.177251,0.14402 0.177251,0.37666 0,0.19387 -0.127399,0.33235 -0.1274,0.13294 -0.354504,0.13294 -0.12186,0 -0.304651,-0.0665 -0.232642,-0.0831 -0.354503,-0.0831 -0.254799,0 -0.420972,0.43759 -0.18833,0.50406 -0.276956,0.65362 -0.08863,0.14401 -0.337886,0.38774 0.171713,0.0499 0.371121,0.25479 0.204947,0.20495 0.753319,1.16876 0.43759,0.76993 0.653615,0.97488 0.221565,0.20495 0.636998,0.21603 z"
         id="path2290" />
      <path
         d="m 71.689863,120.01886 q 1.152135,0 1.850063,0.87518 0.592685,0.74778 0.592685,1.71713 0,0.68131 -0.326808,1.37923 -0.326807,0.69793 -0.902875,1.05244 -0.570528,0.3545 -1.273995,0.3545 -1.146596,0 -1.822368,-0.91395 -0.570528,-0.76994 -0.570528,-1.72821 0,-0.69793 0.343425,-1.38478 0.348964,-0.69238 0.913953,-1.01919 0.564989,-0.33235 1.196448,-0.33235 z m -0.171712,0.36004 q -0.293573,0 -0.592685,0.17726 -0.293573,0.17171 -0.476364,0.6093 -0.182791,0.43759 -0.182791,1.12444 0,1.10782 0.43759,1.91099 0.443129,0.80317 1.163214,0.80317 0.537293,0 0.886257,-0.44313 0.348964,-0.44313 0.348964,-1.52325 0,-1.35155 -0.581606,-2.12702 -0.393277,-0.53176 -1.002579,-0.53176 z"
         id="path2292" />
      <path
         d="m 74.514808,120.67248 1.56203,-0.63146 h 0.210486 v 1.18537 q 0.393277,-0.67023 0.786554,-0.93611 0.398816,-0.27142 0.836406,-0.27142 0.764397,0 1.273995,0.59823 0.62592,0.73116 0.62592,1.90545 0,1.31277 -0.753319,2.17133 -0.620381,0.70347 -1.56203,0.70347 -0.409894,0 -0.709006,-0.11632 -0.221564,-0.0831 -0.49852,-0.33235 v 1.54541 q 0,0.52068 0.06093,0.65916 0.06647,0.14401 0.221565,0.2271 0.160634,0.0831 0.576067,0.0831 v 0.20494 h -2.658773 v -0.20494 h 0.138478 q 0.304651,0.006 0.520676,-0.11632 0.105243,-0.0609 0.160634,-0.19941 0.06093,-0.13294 0.06093,-0.68685 v -4.79687 q 0,-0.49298 -0.04431,-0.62592 -0.04431,-0.13294 -0.144017,-0.19941 -0.09417,-0.0665 -0.260339,-0.0665 -0.132938,0 -0.337885,0.0775 z m 1.772516,0.88072 v 1.89437 q 0,0.61484 0.04985,0.80871 0.07755,0.32127 0.37666,0.56499 0.304651,0.24372 0.764397,0.24372 0.553911,0 0.897336,-0.43205 0.448668,-0.56499 0.448668,-1.58972 0,-1.16322 -0.509598,-1.78914 -0.354503,-0.43205 -0.841945,-0.43205 -0.265878,0 -0.526216,0.13294 -0.199408,0.0997 -0.659154,0.59823 z"
         id="path2294" />
      <path
         d="m 80.186859,120.67248 1.562029,-0.63146 h 0.210486 v 1.18537 q 0.393277,-0.67023 0.786554,-0.93611 0.398816,-0.27142 0.836406,-0.27142 0.764397,0 1.273996,0.59823 0.625919,0.73116 0.625919,1.90545 0,1.31277 -0.753319,2.17133 -0.62038,0.70347 -1.562029,0.70347 -0.409895,0 -0.709007,-0.11632 -0.221564,-0.0831 -0.49852,-0.33235 v 1.54541 q 0,0.52068 0.06093,0.65916 0.06647,0.14401 0.221564,0.2271 0.160634,0.0831 0.576068,0.0831 v 0.20494 h -2.658774 v -0.20494 h 0.138478 q 0.304651,0.006 0.520676,-0.11632 0.105244,-0.0609 0.160635,-0.19941 0.06093,-0.13294 0.06093,-0.68685 v -4.79687 q 0,-0.49298 -0.04431,-0.62592 -0.04431,-0.13294 -0.144017,-0.19941 -0.09417,-0.0665 -0.260338,-0.0665 -0.132939,0 -0.337886,0.0775 z m 1.772515,0.88072 v 1.89437 q 0,0.61484 0.04985,0.80871 0.07755,0.32127 0.37666,0.56499 0.304651,0.24372 0.764397,0.24372 0.553911,0 0.897336,-0.43205 0.448668,-0.56499 0.448668,-1.58972 0,-1.16322 -0.509598,-1.78914 -0.354503,-0.43205 -0.841945,-0.43205 -0.265877,0 -0.526215,0.13294 -0.199408,0.0997 -0.659155,0.59823 z"
         id="path2296" />
      <path
         d="m 87.077514,122.07941 q -0.0055,1.12998 0.548372,1.77252 0.553911,0.64253 1.301691,0.64253 0.49852,0 0.864101,-0.27141 0.371121,-0.27696 0.620381,-0.94165 l 0.171712,0.11078 q -0.116321,0.75886 -0.675771,1.38478 -0.559451,0.62038 -1.401396,0.62038 -0.913953,0 -1.567568,-0.70901 -0.648076,-0.71454 -0.648076,-1.91653 0,-1.30169 0.664693,-2.02731 0.670233,-0.73117 1.678351,-0.73117 0.853023,0 1.401395,0.56499 0.548372,0.55945 0.548372,1.5011 z m 0,-0.32127 h 2.348583 q -0.0277,-0.48744 -0.116321,-0.68685 -0.138478,-0.31019 -0.415434,-0.48744 -0.271416,-0.17725 -0.570528,-0.17725 -0.459746,0 -0.825328,0.36004 -0.360042,0.3545 -0.420972,0.9915 z"
         id="path2298" />
      <path
         d="m 91.78022,120.16842 h 4.536533 v 0.21048 q -0.37666,0 -0.50406,0.0776 -0.12186,0.072 -0.193869,0.18279 -0.07201,0.11078 -0.07201,0.72009 v 2.692 q 0,0.58715 0.06093,0.70347 0.06093,0.11078 0.18833,0.19941 0.132939,0.0831 0.520677,0.0831 v 0.20494 h -2.625539 v -0.20494 q 0.426511,0 0.587146,-0.0443 0.166173,-0.0443 0.260338,-0.21048 0.09417,-0.17172 0.09417,-0.73117 v -3.52287 h -1.689429 v 2.1381 q 0,1.21306 -0.110783,1.70604 -0.105243,0.48744 -0.426511,0.72563 -0.315729,0.23264 -0.725624,0.23264 -0.709006,0 -0.709006,-0.58715 0,-0.1994 0.110782,-0.3268 0.116322,-0.1274 0.299112,-0.1274 0.193869,0 0.360043,0.16063 0.216025,0.21049 0.326807,0.21049 0.24926,0 0.360042,-0.41544 0.116322,-0.42097 0.116322,-1.46786 v -1.1189 q 0,-0.8641 -0.1274,-1.05243 -0.12186,-0.18833 -0.636998,-0.22711 z"
         id="path2300" />
      <path
         d="m 101.52905,120.16842 v 0.21048 q -0.34342,0 -0.50959,0.0942 -0.16064,0.0942 -0.21049,0.23818 -0.0499,0.14402 -0.0499,0.64808 v 2.692 q 0,0.48191 0.0443,0.637 0.0443,0.14956 0.21049,0.24926 0.17171,0.0997 0.51513,0.0997 v 0.20494 h -2.453823 v -0.20494 q 0.459746,0 0.614841,-0.16618 0.155095,-0.17171 0.155095,-0.81979 v -1.10228 l -0.227103,0.006 q -0.04985,0 -0.177252,-0.006 l -1.61742,2.29319 H 96.56047 v -0.20494 q 0.276956,0 0.382199,-0.072 0.110782,-0.0776 0.404355,-0.49298 l 1.18537,-1.67281 q -1.273996,-0.44313 -1.273996,-1.35709 0,-0.51513 0.454208,-0.89179 0.459746,-0.3822 1.562029,-0.3822 z m -1.683887,0.42097 q -0.216025,-0.0609 -0.409894,-0.0609 -0.55945,0 -0.836406,0.27696 -0.276955,0.27695 -0.276955,0.65915 0,0.48744 0.393277,0.80871 0.393277,0.32127 0.991501,0.32127 0.06093,0 0.138477,-0.0111 z"
         id="path2302" />
      <path
         d="m 107.59992,125.0373 v 1.61188 h -0.20494 q -0.0166,-0.64808 -0.42652,-1.03028 -0.40435,-0.37666 -1.4734,-0.37666 h -3.45641 v -0.20494 q 0.49299,0 0.63146,-0.17726 0.13848,-0.18279 0.13848,-0.80871 v -2.692 q 0,-0.59269 -0.0609,-0.69793 -0.0609,-0.11078 -0.18833,-0.19387 -0.1274,-0.0886 -0.52068,-0.0886 v -0.21048 h 2.45383 v 0.21048 q -0.37112,0 -0.49852,0.0776 -0.1274,0.072 -0.19941,0.18279 -0.072,0.11078 -0.072,0.72009 v 2.86372 q 0,0.4819 0.0831,0.57053 0.0886,0.0886 0.55391,0.0886 h 0.89734 q 0.51514,0 0.58714,-0.0942 0.072,-0.0942 0.072,-0.60931 v -2.8194 q 0,-0.52622 -0.0554,-0.67578 -0.0554,-0.15509 -0.21602,-0.2271 -0.16064,-0.0776 -0.49852,-0.0776 v -0.21048 h 2.45382 v 0.21048 q -0.37112,0 -0.49852,0.0776 -0.1274,0.072 -0.19941,0.18279 -0.072,0.11078 -0.072,0.72009 v 2.60892 q 0,0.71454 0.1274,0.88072 0.12739,0.16617 0.64253,0.18833 z"
         id="path2304" />
      <path
         d="m 109.79341,123.68021 2.19349,-2.53691 q -0.0111,-0.42651 -0.16064,-0.59268 -0.14955,-0.16618 -0.51513,-0.17172 v -0.21048 h 2.35966 v 0.21048 q -0.37112,0 -0.49852,0.0776 -0.1274,0.072 -0.19941,0.18279 -0.072,0.11078 -0.072,0.72009 v 2.692 q 0,0.58715 0.0609,0.70347 0.0609,0.11078 0.18833,0.19941 0.13294,0.0831 0.52068,0.0831 v 0.20494 h -2.45383 v -0.20494 q 0.45975,0 0.61484,-0.16618 0.1551,-0.17171 0.1551,-0.81979 v -2.38735 l -2.19349,2.54245 q 0.0111,0.47082 0.13294,0.64808 0.12186,0.17725 0.52621,0.18279 v 0.20494 h -2.34304 v -0.20494 q 0.49298,0 0.63146,-0.17726 0.13848,-0.18279 0.13848,-0.80871 v -2.692 q 0,-0.59269 -0.0609,-0.69793 -0.0609,-0.11078 -0.18833,-0.19387 -0.1274,-0.0886 -0.52068,-0.0886 v -0.21048 h 2.45383 v 0.21048 q -0.37112,0 -0.49852,0.0776 -0.1274,0.072 -0.19941,0.18279 -0.072,0.11078 -0.072,0.72009 z"
         id="path2306" />
      <path
         d="m 118.88863,120.16842 v 0.21048 q -0.34342,0 -0.50959,0.0942 -0.16064,0.0942 -0.21049,0.23818 -0.0498,0.14402 -0.0498,0.64808 v 2.692 q 0,0.48191 0.0443,0.637 0.0443,0.14956 0.21049,0.24926 0.17171,0.0997 0.51513,0.0997 v 0.20494 h -2.45382 v -0.20494 q 0.45974,0 0.61484,-0.16618 0.15509,-0.17171 0.15509,-0.81979 v -1.10228 l -0.2271,0.006 q -0.0498,0 -0.17725,-0.006 l -1.61742,2.29319 h -1.26292 v -0.20494 q 0.27696,0 0.3822,-0.072 0.11078,-0.0776 0.40436,-0.49298 l 1.18537,-1.67281 q -1.274,-0.44313 -1.274,-1.35709 0,-0.51513 0.45421,-0.89179 0.45974,-0.3822 1.56203,-0.3822 z m -1.68389,0.42097 q -0.21602,-0.0609 -0.40989,-0.0609 -0.55945,0 -0.83641,0.27696 -0.27695,0.27695 -0.27695,0.65915 0,0.48744 0.39328,0.80871 0.39327,0.32127 0.9915,0.32127 0.0609,0 0.13847,-0.0111 z"
         id="path2308" />
    </g>
    <g
       aria-label="есть
автокорреляция"
       id="text1358-4-8-7-3"
       style="font-size:11.3441px;font-family:'Times New Roman';-inkscape-font-specification:'Times New Roman, Normal';stroke-width:2.09116">
      <path
         d="m 384.83567,108.23248 q -0.006,1.12998 0.54837,1.77251 0.55391,0.64254 1.30169,0.64254 0.49852,0 0.8641,-0.27142 0.37112,-0.27695 0.62038,-0.94165 l 0.17172,0.11079 q -0.11632,0.75885 -0.67577,1.38477 -0.55945,0.62038 -1.4014,0.62038 -0.91395,0 -1.56757,-0.709 -0.64807,-0.71455 -0.64807,-1.91653 0,-1.3017 0.66469,-2.02732 0.67023,-0.73116 1.67835,-0.73116 0.85302,0 1.4014,0.56499 0.54837,0.55945 0.54837,1.5011 z m 0,-0.32127 h 2.34858 q -0.0277,-0.48744 -0.11632,-0.68685 -0.13848,-0.31019 -0.41543,-0.48744 -0.27142,-0.17725 -0.57053,-0.17725 -0.45975,0 -0.82533,0.36004 -0.36004,0.3545 -0.42097,0.9915 z"
         id="path2152" />
      <path
         d="m 393.60962,109.4677 q -0.20495,1.00258 -0.80317,1.54541 -0.59822,0.53729 -1.32385,0.53729 -0.8641,0 -1.50664,-0.72562 -0.64253,-0.72562 -0.64253,-1.96084 0,-1.19645 0.709,-1.94423 0.71455,-0.74778 1.71159,-0.74778 0.74778,0 1.22968,0.39881 0.4819,0.39328 0.4819,0.81979 0,0.21049 -0.13847,0.34343 -0.13294,0.1274 -0.37666,0.1274 -0.32681,0 -0.49298,-0.21049 -0.0942,-0.11632 -0.1274,-0.44313 -0.0277,-0.32681 -0.22157,-0.49852 -0.19387,-0.16617 -0.53729,-0.16617 -0.55391,0 -0.8918,0.40989 -0.44867,0.54284 -0.44867,1.43463 0,0.90842 0.44313,1.60634 0.44867,0.69239 1.20753,0.69239 0.54283,0 0.97488,-0.37112 0.30465,-0.2548 0.59269,-0.92503 z"
         id="path2154" />
      <path
         d="m 394.2577,106.32148 h 4.38697 l 0.22157,1.3737 h -0.24926 q -0.0665,-0.41543 -0.22157,-0.64253 -0.15509,-0.22711 -0.3545,-0.29912 -0.19941,-0.072 -0.68131,-0.072 h -0.44313 v 3.52287 q 0,0.56499 0.0665,0.72008 0.072,0.14956 0.2271,0.19941 0.1551,0.0498 0.70901,0.0665 v 0.20495 h -2.75848 v -0.20495 q 0.53176,-0.0111 0.68131,-0.17171 0.1551,-0.16063 0.1551,-0.81425 v -3.52287 h -0.45421 q -0.47636,0 -0.64807,0.0609 -0.17172,0.0554 -0.33235,0.27695 -0.1551,0.21603 -0.26588,0.67577 h -0.24926 z"
         id="path2156" />
      <path
         d="m 400.87694,108.58144 0.63146,-0.0111 q 2.25995,0 2.25995,1.39586 0,0.64807 -0.55391,1.04135 -0.54837,0.38774 -1.58418,0.38774 h -2.43721 v -0.20495 q 0.49298,0 0.63146,-0.17725 0.13847,-0.18279 0.13847,-0.80871 v -2.69201 q 0,-0.59268 -0.0609,-0.69793 -0.0609,-0.11078 -0.18833,-0.19386 -0.1274,-0.0886 -0.52067,-0.0886 v -0.21049 h 2.65323 v 0.21049 q -0.54837,0 -0.67577,0.0665 -0.1274,0.0609 -0.21049,0.16617 -0.0831,0.0997 -0.0831,0.74778 z m 0,2.37628 q 0.29357,0.0776 0.58714,0.0776 0.55391,0 0.89734,-0.29358 0.34896,-0.29357 0.34896,-0.74224 0,-1.06351 -1.47894,-1.06351 -0.1274,0 -0.3545,0.006 z"
         id="path2158" />
      <path
         d="m 386.85745,124.84427 q -0.78102,0.60376 -0.98043,0.69793 -0.29911,0.13848 -0.637,0.13848 -0.52621,0 -0.86964,-0.36004 -0.33788,-0.36005 -0.33788,-0.94719 0,-0.37112 0.16617,-0.64254 0.22711,-0.37666 0.78656,-0.70901 0.56498,-0.33234 1.87222,-0.80871 v -0.1994 q 0,-0.75886 -0.24373,-1.04136 -0.23818,-0.28249 -0.69792,-0.28249 -0.34897,0 -0.55391,0.18833 -0.21049,0.18833 -0.21049,0.43205 l 0.0111,0.32127 q 0,0.2548 -0.13294,0.39327 -0.1274,0.13848 -0.33789,0.13848 -0.20494,0 -0.33788,-0.14402 -0.1274,-0.14401 -0.1274,-0.39327 0,-0.47637 0.48744,-0.87518 0.48744,-0.39882 1.36816,-0.39882 0.67577,0 1.10782,0.22711 0.32681,0.17171 0.4819,0.53729 0.0997,0.23818 0.0997,0.97488 v 1.72267 q 0,0.72562 0.0277,0.89179 0.0277,0.16064 0.0886,0.21603 0.0665,0.0554 0.14956,0.0554 0.0886,0 0.15509,-0.0388 0.11632,-0.072 0.44867,-0.40436 v 0.31019 q -0.62038,0.83087 -1.18537,0.83087 -0.27142,0 -0.43205,-0.18833 -0.16064,-0.18833 -0.16617,-0.64254 z m 0,-0.36004 v -1.93315 q -0.83641,0.33235 -1.08013,0.47082 -0.43759,0.24373 -0.62592,0.5096 -0.18833,0.26588 -0.18833,0.58161 0,0.39882 0.23818,0.66469 0.23818,0.26034 0.54837,0.26034 0.42098,0 1.10783,-0.55391 z"
         id="path2160" />
      <path
         d="m 392.23592,122.8945 q 1.39032,0.28804 1.39032,1.3017 0,0.69238 -0.58161,1.03581 -0.57606,0.34342 -1.61188,0.34342 h -2.50368 v -0.20494 q 0.49298,0 0.62038,-0.18279 0.13294,-0.18833 0.13294,-0.80317 v -2.69201 q 0,-0.59823 -0.0609,-0.70347 -0.0554,-0.10524 -0.18279,-0.18833 -0.12186,-0.0886 -0.5096,-0.0886 v -0.21048 h 2.33751 q 0.67577,0 1.0912,0.10524 0.42098,0.10524 0.68685,0.41543 0.27142,0.3102 0.27142,0.75332 0,0.86411 -1.08013,1.1189 z m -1.63404,-0.12739 q 0.24373,0.006 0.29358,0.006 0.75886,0 1.09674,-0.28803 0.33789,-0.29357 0.33789,-0.70901 0,-0.4819 -0.34343,-0.69792 -0.34342,-0.21603 -1.09674,-0.21603 h -0.28804 z m 0,2.35966 q 0.27696,0.0886 0.65916,0.0886 0.65915,0 0.98042,-0.28803 0.32127,-0.28804 0.32127,-0.74224 0,-0.5096 -0.41543,-0.78102 -0.41544,-0.27141 -1.15214,-0.27141 -0.18279,0 -0.39328,0.0111 z"
         id="path2162" />
      <path
         d="m 394.01398,120.50161 h 4.38697 l 0.22157,1.3737 h -0.24926 q -0.0665,-0.41544 -0.22157,-0.64254 -0.15509,-0.2271 -0.3545,-0.29911 -0.19941,-0.072 -0.68131,-0.072 h -0.44313 v 3.52288 q 0,0.56498 0.0665,0.72008 0.072,0.14956 0.2271,0.19941 0.1551,0.0499 0.70901,0.0665 v 0.20494 h -2.75848 v -0.20494 q 0.53176,-0.0111 0.68131,-0.17172 0.1551,-0.16063 0.1551,-0.81424 v -3.52288 h -0.45421 q -0.47636,0 -0.64808,0.0609 -0.17171,0.0554 -0.33234,0.27696 -0.1551,0.21602 -0.26588,0.67577 h -0.24926 z"
         id="path2164" />
      <path
         d="m 401.38099,120.35205 q 1.15214,0 1.85007,0.87518 0.59268,0.74778 0.59268,1.71713 0,0.68131 -0.3268,1.37924 -0.32681,0.69792 -0.90288,1.05243 -0.57053,0.3545 -1.274,0.3545 -1.14659,0 -1.82236,-0.91395 -0.57053,-0.76994 -0.57053,-1.72821 0,-0.69792 0.34342,-1.38477 0.34897,-0.69239 0.91396,-1.0192 0.56499,-0.33235 1.19644,-0.33235 z m -0.17171,0.36004 q -0.29357,0 -0.59268,0.17726 -0.29358,0.17171 -0.47637,0.6093 -0.18279,0.43759 -0.18279,1.12444 0,1.10782 0.43759,1.91099 0.44313,0.80317 1.16322,0.80317 0.53729,0 0.88625,-0.44313 0.34897,-0.44313 0.34897,-1.52325 0,-1.35155 -0.58161,-2.12702 -0.39328,-0.53176 -1.00258,-0.53176 z"
         id="path2166" />
      <path
         d="m 409.66197,125.57543 h -1.49556 q -0.69793,-1.01365 -1.26292,-2.07716 -0.13294,-0.24372 -0.24372,-0.36004 -0.10524,-0.12186 -0.29357,-0.12186 -0.0665,0 -0.21049,0.0111 v 1.35709 q 0,0.54837 0.0609,0.70346 0.0665,0.14956 0.23264,0.21603 0.16618,0.0665 0.55945,0.0665 v 0.20494 h -2.53691 v -0.20494 q 0.49298,0 0.63146,-0.17725 0.13848,-0.18279 0.13848,-0.80871 v -2.69201 q 0,-0.59269 -0.0609,-0.69793 -0.0609,-0.11078 -0.18833,-0.19387 -0.1274,-0.0886 -0.52068,-0.0886 v -0.21048 h 2.53691 v 0.21048 q -0.45974,0 -0.57053,0.0665 -0.10524,0.0665 -0.19387,0.16618 -0.0886,0.0942 -0.0886,0.74778 v 0.99704 q 0.1274,0.0111 0.17171,0.0111 0.33789,0 0.63146,-0.18833 0.29911,-0.19387 0.53175,-0.81425 0.21603,-0.58715 0.35451,-0.7921 0.14401,-0.20494 0.39327,-0.33234 0.2548,-0.13294 0.53176,-0.13294 0.29911,0 0.47636,0.14402 0.17725,0.14401 0.17725,0.37665 0,0.19387 -0.12739,0.33235 -0.1274,0.13294 -0.35451,0.13294 -0.12186,0 -0.30465,-0.0665 -0.23264,-0.0831 -0.3545,-0.0831 -0.2548,0 -0.42097,0.43759 -0.18833,0.50406 -0.27696,0.65362 -0.0886,0.14402 -0.33789,0.38774 0.17172,0.0499 0.37112,0.2548 0.20495,0.20494 0.75332,1.16875 0.43759,0.76993 0.65362,0.97488 0.22156,0.20495 0.637,0.21603 z"
         id="path2168" />
      <path
         d="m 411.98839,120.35205 q 1.15214,0 1.85007,0.87518 0.59268,0.74778 0.59268,1.71713 0,0.68131 -0.32681,1.37924 -0.3268,0.69792 -0.90287,1.05243 -0.57053,0.3545 -1.274,0.3545 -1.14659,0 -1.82236,-0.91395 -0.57053,-0.76994 -0.57053,-1.72821 0,-0.69792 0.34342,-1.38477 0.34897,-0.69239 0.91396,-1.0192 0.56498,-0.33235 1.19644,-0.33235 z m -0.17171,0.36004 q -0.29357,0 -0.59268,0.17726 -0.29358,0.17171 -0.47637,0.6093 -0.18279,0.43759 -0.18279,1.12444 0,1.10782 0.43759,1.91099 0.44313,0.80317 1.16322,0.80317 0.53729,0 0.88625,-0.44313 0.34897,-0.44313 0.34897,-1.52325 0,-1.35155 -0.58161,-2.12702 -0.39328,-0.53176 -1.00258,-0.53176 z"
         id="path2170" />
      <path
         d="m 414.81334,121.00567 1.56203,-0.63146 h 0.21048 v 1.18537 q 0.39328,-0.67023 0.78656,-0.93611 0.39881,-0.27142 0.8364,-0.27142 0.7644,0 1.274,0.59823 0.62592,0.73116 0.62592,1.90545 0,1.31277 -0.75332,2.17133 -0.62038,0.70347 -1.56203,0.70347 -0.40989,0 -0.70901,-0.11632 -0.22156,-0.0831 -0.49852,-0.33235 v 1.54541 q 0,0.52068 0.0609,0.65916 0.0665,0.14401 0.22157,0.2271 0.16063,0.0831 0.57607,0.0831 v 0.20495 h -2.65878 v -0.20495 h 0.13848 q 0.30465,0.006 0.52068,-0.11632 0.10524,-0.0609 0.16063,-0.19941 0.0609,-0.13294 0.0609,-0.68685 v -4.79687 q 0,-0.49298 -0.0443,-0.62592 -0.0443,-0.13294 -0.14402,-0.19941 -0.0942,-0.0665 -0.26034,-0.0665 -0.13293,0 -0.33788,0.0776 z m 1.77251,0.88072 v 1.89437 q 0,0.61484 0.0499,0.80871 0.0775,0.32127 0.37666,0.56499 0.30465,0.24372 0.76439,0.24372 0.55391,0 0.89734,-0.43205 0.44867,-0.56499 0.44867,-1.58972 0,-1.16322 -0.5096,-1.78914 -0.3545,-0.43205 -0.84195,-0.43205 -0.26587,0 -0.52621,0.13294 -0.19941,0.0997 -0.65916,0.59823 z"
         id="path2172" />
      <path
         d="m 420.48539,121.00567 1.56203,-0.63146 h 0.21048 v 1.18537 q 0.39328,-0.67023 0.78656,-0.93611 0.39881,-0.27142 0.8364,-0.27142 0.7644,0 1.274,0.59823 0.62592,0.73116 0.62592,1.90545 0,1.31277 -0.75332,2.17133 -0.62038,0.70347 -1.56203,0.70347 -0.40989,0 -0.709,-0.11632 -0.22157,-0.0831 -0.49853,-0.33235 v 1.54541 q 0,0.52068 0.0609,0.65916 0.0665,0.14401 0.22156,0.2271 0.16063,0.0831 0.57607,0.0831 v 0.20495 h -2.65878 v -0.20495 h 0.13848 q 0.30465,0.006 0.52068,-0.11632 0.10524,-0.0609 0.16063,-0.19941 0.0609,-0.13294 0.0609,-0.68685 v -4.79687 q 0,-0.49298 -0.0443,-0.62592 -0.0443,-0.13294 -0.14402,-0.19941 -0.0942,-0.0665 -0.26034,-0.0665 -0.13293,0 -0.33788,0.0776 z m 1.77251,0.88072 v 1.89437 q 0,0.61484 0.0499,0.80871 0.0775,0.32127 0.37666,0.56499 0.30465,0.24372 0.76439,0.24372 0.55392,0 0.89734,-0.43205 0.44867,-0.56499 0.44867,-1.58972 0,-1.16322 -0.5096,-1.78914 -0.3545,-0.43205 -0.84195,-0.43205 -0.26587,0 -0.52621,0.13294 -0.19941,0.0997 -0.65916,0.59823 z"
         id="path2174" />
      <path
         d="m 427.37604,122.4126 q -0.006,1.12998 0.54838,1.77252 0.55391,0.64253 1.30169,0.64253 0.49852,0 0.8641,-0.27141 0.37112,-0.27696 0.62038,-0.94165 l 0.17171,0.11078 q -0.11632,0.75886 -0.67577,1.38478 -0.55945,0.62038 -1.40139,0.62038 -0.91396,0 -1.56757,-0.70901 -0.64808,-0.71454 -0.64808,-1.91653 0,-1.30169 0.66469,-2.02731 0.67024,-0.73117 1.67835,-0.73117 0.85303,0 1.4014,0.56499 0.54837,0.55945 0.54837,1.5011 z m 0,-0.32127 h 2.34859 q -0.0277,-0.48744 -0.11632,-0.68685 -0.13848,-0.31019 -0.41544,-0.48744 -0.27141,-0.17725 -0.57053,-0.17725 -0.45974,0 -0.82532,0.36004 -0.36005,0.35451 -0.42098,0.9915 z"
         id="path2176" />
      <path
         d="m 432.07875,120.50161 h 4.53653 v 0.21048 q -0.37666,0 -0.50406,0.0776 -0.12186,0.072 -0.19386,0.18279 -0.072,0.11079 -0.072,0.72009 v 2.69201 q 0,0.58714 0.0609,0.70346 0.0609,0.11078 0.18833,0.19941 0.13294,0.0831 0.52067,0.0831 v 0.20494 h -2.62554 v -0.20494 q 0.42652,0 0.58715,-0.0443 0.16617,-0.0443 0.26034,-0.21048 0.0942,-0.17171 0.0942,-0.73116 v -3.52288 h -1.68943 v 2.1381 q 0,1.21306 -0.11078,1.70604 -0.10524,0.48745 -0.42651,0.72563 -0.31573,0.23264 -0.72562,0.23264 -0.70901,0 -0.70901,-0.58715 0,-0.1994 0.11078,-0.3268 0.11632,-0.1274 0.29911,-0.1274 0.19387,0 0.36005,0.16063 0.21602,0.21049 0.3268,0.21049 0.24926,0 0.36005,-0.41544 0.11632,-0.42097 0.11632,-1.46786 v -1.1189 q 0,-0.8641 -0.1274,-1.05243 -0.12186,-0.18833 -0.637,-0.22711 z"
         id="path2178" />
      <path
         d="m 441.82758,120.50161 v 0.21048 q -0.34342,0 -0.50959,0.0942 -0.16064,0.0942 -0.21049,0.23818 -0.0498,0.14402 -0.0498,0.64808 v 2.69201 q 0,0.4819 0.0443,0.63699 0.0443,0.14956 0.21049,0.24926 0.17171,0.0997 0.51513,0.0997 v 0.20494 h -2.45382 v -0.20494 q 0.45974,0 0.61484,-0.16618 0.15509,-0.17171 0.15509,-0.81978 v -1.10229 l -0.2271,0.006 q -0.0498,0 -0.17725,-0.006 l -1.61742,2.29319 H 436.859 v -0.20494 q 0.27696,0 0.3822,-0.072 0.11078,-0.0776 0.40435,-0.49298 l 1.18537,-1.67281 q -1.27399,-0.44313 -1.27399,-1.35709 0,-0.51513 0.45421,-0.89179 0.45974,-0.3822 1.56203,-0.3822 z m -1.68389,0.42097 q -0.21602,-0.0609 -0.40989,-0.0609 -0.55945,0 -0.83641,0.27696 -0.27695,0.27695 -0.27695,0.65915 0,0.48744 0.39328,0.80871 0.39327,0.32127 0.9915,0.32127 0.0609,0 0.13847,-0.0111 z"
         id="path2180" />
      <path
         d="m 447.89845,125.37049 v 1.61188 h -0.20494 q -0.0166,-0.64808 -0.42652,-1.03028 -0.40435,-0.37666 -1.4734,-0.37666 h -3.4564 v -0.20494 q 0.49298,0 0.63145,-0.17725 0.13848,-0.18279 0.13848,-0.80871 v -2.69201 q 0,-0.59269 -0.0609,-0.69793 -0.0609,-0.11078 -0.18833,-0.19387 -0.1274,-0.0886 -0.52067,-0.0886 v -0.21048 h 2.45382 v 0.21048 q -0.37112,0 -0.49852,0.0776 -0.1274,0.072 -0.19941,0.18279 -0.072,0.11079 -0.072,0.72009 v 2.86372 q 0,0.4819 0.0831,0.57053 0.0886,0.0886 0.55391,0.0886 h 0.89734 q 0.51514,0 0.58714,-0.0942 0.072,-0.0942 0.072,-0.6093 v -2.81941 q 0,-0.52622 -0.0554,-0.67577 -0.0554,-0.1551 -0.21602,-0.22711 -0.16064,-0.0776 -0.49852,-0.0776 v -0.21048 h 2.45382 v 0.21048 q -0.37112,0 -0.49852,0.0776 -0.1274,0.072 -0.19941,0.18279 -0.072,0.11079 -0.072,0.72009 v 2.60892 q 0,0.71454 0.1274,0.88072 0.1274,0.16617 0.64253,0.18833 z"
         id="path2182" />
      <path
         d="m 450.09194,124.01341 2.19349,-2.53692 q -0.0111,-0.42651 -0.16064,-0.59268 -0.14955,-0.16618 -0.51513,-0.17172 v -0.21048 h 2.35966 v 0.21048 q -0.37112,0 -0.49852,0.0776 -0.1274,0.072 -0.19941,0.18279 -0.072,0.11079 -0.072,0.72009 v 2.69201 q 0,0.58714 0.0609,0.70346 0.0609,0.11078 0.18833,0.19941 0.13294,0.0831 0.52068,0.0831 v 0.20494 h -2.45383 v -0.20494 q 0.45975,0 0.61484,-0.16618 0.1551,-0.17171 0.1551,-0.81978 v -2.38736 l -2.19349,2.54245 q 0.0111,0.47083 0.13294,0.64808 0.12186,0.17725 0.52621,0.18279 v 0.20494 h -2.34304 v -0.20494 q 0.49298,0 0.63146,-0.17725 0.13848,-0.18279 0.13848,-0.80871 v -2.69201 q 0,-0.59269 -0.0609,-0.69793 -0.0609,-0.11078 -0.18833,-0.19387 -0.1274,-0.0886 -0.52068,-0.0886 v -0.21048 h 2.45383 v 0.21048 q -0.37112,0 -0.49852,0.0776 -0.1274,0.072 -0.19941,0.18279 -0.072,0.11079 -0.072,0.72009 z"
         id="path2184" />
      <path
         d="m 459.18716,120.50161 v 0.21048 q -0.34342,0 -0.50959,0.0942 -0.16064,0.0942 -0.21049,0.23818 -0.0498,0.14402 -0.0498,0.64808 v 2.69201 q 0,0.4819 0.0443,0.63699 0.0443,0.14956 0.21049,0.24926 0.17171,0.0997 0.51513,0.0997 v 0.20494 h -2.45382 v -0.20494 q 0.45974,0 0.61484,-0.16618 0.15509,-0.17171 0.15509,-0.81978 v -1.10229 l -0.2271,0.006 q -0.0498,0 -0.17725,-0.006 l -1.61742,2.29319 h -1.26292 v -0.20494 q 0.27696,0 0.3822,-0.072 0.11078,-0.0776 0.40436,-0.49298 l 1.18537,-1.67281 q -1.274,-0.44313 -1.274,-1.35709 0,-0.51513 0.45421,-0.89179 0.45974,-0.3822 1.56203,-0.3822 z m -1.68389,0.42097 q -0.21602,-0.0609 -0.40989,-0.0609 -0.55945,0 -0.83641,0.27696 -0.27695,0.27695 -0.27695,0.65915 0,0.48744 0.39328,0.80871 0.39327,0.32127 0.9915,0.32127 0.0609,0 0.13847,-0.0111 z"
         id="path2186" />
    </g>
    <circle
       id="path1558"
       style="fill:#000000;stroke:#000000;stroke-width:0.264583"
       cx="180.69106"
       cy="105.83333"
       r="0.00012995122" />
    <g
       aria-label="не
определено"
       id="text1358-4-8-7-6"
       style="font-size:11.3441px;font-family:'Times New Roman';-inkscape-font-specification:'Times New Roman, Normal';stroke-width:2.09116">
      <path
         d="m 140.19739,108.25379 h 2.19348 v -1.07459 q 0,-0.4819 -0.0388,-0.62592 -0.0388,-0.14955 -0.19387,-0.24926 -0.14955,-0.10524 -0.53729,-0.10524 v -0.21049 h 2.45382 v 0.21049 q -0.34342,0 -0.50405,0.0776 -0.1551,0.0775 -0.21049,0.2271 -0.0554,0.14402 -0.0554,0.67577 v 2.69201 q 0,0.4819 0.0388,0.637 0.0443,0.15509 0.20495,0.2548 0.16063,0.0942 0.52621,0.0942 v 0.20495 h -2.45382 v -0.20495 q 0.45974,0 0.61484,-0.16617 0.15509,-0.17171 0.15509,-0.81979 v -1.25738 h -2.19348 v 1.25738 q 0,0.4819 0.0388,0.637 0.0443,0.15509 0.20495,0.2548 0.16063,0.0942 0.52621,0.0942 v 0.20495 h -2.45382 v -0.20495 q 0.49298,0 0.63146,-0.17725 0.13847,-0.18279 0.13847,-0.80871 v -2.69201 q 0,-0.4819 -0.0443,-0.637 -0.0388,-0.15509 -0.19941,-0.24926 -0.16063,-0.0942 -0.52621,-0.0942 v -0.21049 h 2.45382 v 0.21049 q -0.34342,0 -0.50406,0.0776 -0.15509,0.0775 -0.21048,0.2271 -0.0554,0.14402 -0.0554,0.67577 z"
         id="path2249" />
      <path
         d="m 145.53709,107.89929 q -0.006,1.12997 0.54837,1.77251 0.55391,0.64254 1.30169,0.64254 0.49852,0 0.8641,-0.27142 0.37112,-0.27695 0.62038,-0.94165 l 0.17172,0.11079 q -0.11632,0.75885 -0.67577,1.38477 -0.55945,0.62038 -1.4014,0.62038 -0.91395,0 -1.56757,-0.709 -0.64807,-0.71455 -0.64807,-1.91654 0,-1.30169 0.66469,-2.02731 0.67023,-0.73116 1.67835,-0.73116 0.85302,0 1.4014,0.56499 0.54837,0.55945 0.54837,1.5011 z m 0,-0.32127 h 2.34858 q -0.0277,-0.48744 -0.11632,-0.68685 -0.13848,-0.31019 -0.41543,-0.48744 -0.27142,-0.17726 -0.57053,-0.17726 -0.45975,0 -0.82533,0.36005 -0.36004,0.3545 -0.42097,0.9915 z"
         id="path2251" />
      <path
         d="m 141.09472,120.01886 q 1.15214,0 1.85007,0.87518 0.59268,0.74778 0.59268,1.71713 0,0.68131 -0.32681,1.37923 -0.3268,0.69793 -0.90287,1.05244 -0.57053,0.3545 -1.274,0.3545 -1.14659,0 -1.82237,-0.91395 -0.57052,-0.76994 -0.57052,-1.72821 0,-0.69793 0.34342,-1.38478 0.34897,-0.69238 0.91395,-1.01919 0.56499,-0.33235 1.19645,-0.33235 z m -0.17171,0.36004 q -0.29357,0 -0.59268,0.17726 -0.29358,0.17171 -0.47637,0.6093 -0.18279,0.43759 -0.18279,1.12444 0,1.10782 0.43759,1.91099 0.44313,0.80317 1.16321,0.80317 0.5373,0 0.88626,-0.44313 0.34897,-0.44313 0.34897,-1.52325 0,-1.35155 -0.58161,-2.12702 -0.39328,-0.53176 -1.00258,-0.53176 z"
         id="path2253" />
      <path
         d="m 148.06292,120.52846 h -2.19348 v 3.52287 q 0,0.58715 0.0609,0.70347 0.0609,0.11078 0.18833,0.19941 0.13294,0.0831 0.52067,0.0831 v 0.20494 h -2.45382 v -0.20494 q 0.49298,0 0.63146,-0.17726 0.13847,-0.18279 0.13847,-0.80871 v -2.692 q 0,-0.59269 -0.0609,-0.69793 -0.0609,-0.11078 -0.18833,-0.19387 -0.1274,-0.0886 -0.52067,-0.0886 v -0.21048 h 5.56126 v 0.21048 q -0.37112,0 -0.49852,0.0776 -0.1274,0.072 -0.1994,0.18279 -0.072,0.11078 -0.072,0.72009 v 2.692 q 0,0.58715 0.0609,0.70347 0.0609,0.11078 0.18833,0.19941 0.13294,0.0831 0.52067,0.0831 v 0.20494 h -2.45382 v -0.20494 q 0.45974,0 0.61484,-0.16618 0.15509,-0.17171 0.15509,-0.81979 z"
         id="path2255" />
      <path
         d="m 149.99054,120.67248 1.56202,-0.63146 h 0.21049 v 1.18537 q 0.39328,-0.67023 0.78655,-0.93611 0.39882,-0.27142 0.83641,-0.27142 0.7644,0 1.274,0.59823 0.62592,0.73116 0.62592,1.90545 0,1.31277 -0.75332,2.17133 -0.62038,0.70347 -1.56203,0.70347 -0.4099,0 -0.70901,-0.11632 -0.22156,-0.0831 -0.49852,-0.33235 v 1.54541 q 0,0.52068 0.0609,0.65916 0.0665,0.14401 0.22157,0.2271 0.16063,0.0831 0.57606,0.0831 v 0.20494 h -2.65877 v -0.20494 h 0.13848 q 0.30465,0.006 0.52067,-0.11632 0.10525,-0.0609 0.16064,-0.19941 0.0609,-0.13294 0.0609,-0.68685 v -4.79687 q 0,-0.49298 -0.0443,-0.62592 -0.0443,-0.13294 -0.14402,-0.19941 -0.0942,-0.0665 -0.26034,-0.0665 -0.13294,0 -0.33789,0.0775 z m 1.77251,0.88072 v 1.89437 q 0,0.61484 0.0499,0.80871 0.0775,0.32127 0.37666,0.56499 0.30465,0.24372 0.7644,0.24372 0.55391,0 0.89734,-0.43205 0.44866,-0.56499 0.44866,-1.58972 0,-1.16322 -0.50959,-1.78914 -0.35451,-0.43205 -0.84195,-0.43205 -0.26588,0 -0.52621,0.13294 -0.19941,0.0997 -0.65916,0.59823 z"
         id="path2257" />
      <path
         d="m 156.88119,122.07941 q -0.006,1.12998 0.54837,1.77252 0.55391,0.64253 1.30169,0.64253 0.49852,0 0.8641,-0.27141 0.37113,-0.27696 0.62039,-0.94165 l 0.17171,0.11078 q -0.11632,0.75886 -0.67577,1.38478 -0.55945,0.62038 -1.4014,0.62038 -0.91395,0 -1.56757,-0.70901 -0.64807,-0.71454 -0.64807,-1.91653 0,-1.30169 0.66469,-2.02731 0.67023,-0.73117 1.67835,-0.73117 0.85302,0 1.4014,0.56499 0.54837,0.55945 0.54837,1.5011 z m 0,-0.32127 h 2.34858 q -0.0277,-0.48744 -0.11632,-0.68685 -0.13848,-0.31019 -0.41543,-0.48744 -0.27142,-0.17725 -0.57053,-0.17725 -0.45975,0 -0.82533,0.36004 -0.36004,0.3545 -0.42097,0.9915 z"
         id="path2259" />
      <path
         d="m 161.60605,120.16842 h 4.4756 v 0.21048 q -0.37666,0 -0.50405,0.0776 -0.12187,0.072 -0.19387,0.18279 -0.072,0.11078 -0.072,0.72009 v 2.50921 q 0,0.7921 0.13294,0.97489 0.13847,0.17725 0.63699,0.19387 v 1.61188 h -0.21048 q -0.0222,-0.45421 -0.22711,-0.7921 -0.1994,-0.33788 -0.55945,-0.47636 -0.36004,-0.13848 -1.06351,-0.13848 h -1.30723 q -0.6093,0 -0.95272,0.10525 -0.34343,0.11078 -0.57607,0.4542 -0.2271,0.34343 -0.27696,0.84749 h -0.20494 v -1.61188 q 0.4542,-0.0166 0.82532,-0.36005 0.37113,-0.34342 0.65362,-1.346 0.28249,-1.00258 0.28249,-1.97192 0,-0.95273 -0.85856,-0.98043 z m 1.22415,0.36004 v 0.30465 q 0,2.7197 -0.98597,4.04909 h 1.8833 q 0.5096,0 0.58715,-0.0831 0.0776,-0.0886 0.0776,-0.63699 v -3.63366 z"
         id="path2261" />
      <path
         d="m 167.53844,122.07941 q -0.006,1.12998 0.54837,1.77252 0.55391,0.64253 1.30169,0.64253 0.49852,0 0.8641,-0.27141 0.37112,-0.27696 0.62038,-0.94165 l 0.17172,0.11078 q -0.11632,0.75886 -0.67577,1.38478 -0.55945,0.62038 -1.4014,0.62038 -0.91395,0 -1.56757,-0.70901 -0.64807,-0.71454 -0.64807,-1.91653 0,-1.30169 0.66469,-2.02731 0.67023,-0.73117 1.67835,-0.73117 0.85302,0 1.4014,0.56499 0.54837,0.55945 0.54837,1.5011 z m 0,-0.32127 h 2.34858 q -0.0277,-0.48744 -0.11632,-0.68685 -0.13848,-0.31019 -0.41543,-0.48744 -0.27142,-0.17725 -0.57053,-0.17725 -0.45975,0 -0.82533,0.36004 -0.36004,0.3545 -0.42097,0.9915 z"
         id="path2263" />
      <path
         d="m 172.24115,120.16842 h 4.53653 v 0.21048 q -0.37666,0 -0.50406,0.0776 -0.12186,0.072 -0.19387,0.18279 -0.072,0.11078 -0.072,0.72009 v 2.692 q 0,0.58715 0.0609,0.70347 0.0609,0.11078 0.18833,0.19941 0.13294,0.0831 0.52068,0.0831 v 0.20494 h -2.62554 v -0.20494 q 0.42651,0 0.58715,-0.0443 0.16617,-0.0443 0.26033,-0.21048 0.0942,-0.17172 0.0942,-0.73117 v -3.52287 h -1.68943 v 2.1381 q 0,1.21306 -0.11078,1.70604 -0.10525,0.48744 -0.42651,0.72563 -0.31573,0.23264 -0.72563,0.23264 -0.709,0 -0.709,-0.58715 0,-0.1994 0.11078,-0.3268 0.11632,-0.1274 0.29911,-0.1274 0.19387,0 0.36004,0.16063 0.21603,0.21049 0.32681,0.21049 0.24926,0 0.36004,-0.41544 0.11632,-0.42097 0.11632,-1.46786 v -1.1189 q 0,-0.8641 -0.1274,-1.05243 -0.12186,-0.18833 -0.63699,-0.22711 z"
         id="path2265" />
      <path
         d="m 178.23447,122.07941 q -0.006,1.12998 0.54837,1.77252 0.55391,0.64253 1.30169,0.64253 0.49852,0 0.8641,-0.27141 0.37112,-0.27696 0.62038,-0.94165 l 0.17171,0.11078 q -0.11632,0.75886 -0.67577,1.38478 -0.55945,0.62038 -1.40139,0.62038 -0.91396,0 -1.56757,-0.70901 -0.64808,-0.71454 -0.64808,-1.91653 0,-1.30169 0.6647,-2.02731 0.67023,-0.73117 1.67835,-0.73117 0.85302,0 1.40139,0.56499 0.54837,0.55945 0.54837,1.5011 z m 0,-0.32127 h 2.34858 q -0.0277,-0.48744 -0.11632,-0.68685 -0.13848,-0.31019 -0.41544,-0.48744 -0.27141,-0.17725 -0.57052,-0.17725 -0.45975,0 -0.82533,0.36004 -0.36004,0.3545 -0.42097,0.9915 z"
         id="path2267" />
      <path
         d="m 184.00068,122.43391 h 2.19349 v -1.07458 q 0,-0.48191 -0.0388,-0.62592 -0.0388,-0.14956 -0.19387,-0.24926 -0.14955,-0.10525 -0.53729,-0.10525 v -0.21048 h 2.45383 v 0.21048 q -0.34343,0 -0.50406,0.0776 -0.1551,0.0776 -0.21049,0.2271 -0.0554,0.14402 -0.0554,0.67578 v 2.692 q 0,0.48191 0.0388,0.637 0.0443,0.1551 0.20495,0.2548 0.16063,0.0942 0.52622,0.0942 v 0.20494 h -2.45383 v -0.20494 q 0.45975,0 0.61484,-0.16618 0.1551,-0.17171 0.1551,-0.81979 v -1.25737 h -2.19349 v 1.25737 q 0,0.48191 0.0388,0.637 0.0443,0.1551 0.20495,0.2548 0.16063,0.0942 0.52621,0.0942 v 0.20494 h -2.45382 v -0.20494 q 0.49298,0 0.63146,-0.17726 0.13847,-0.18279 0.13847,-0.80871 v -2.692 q 0,-0.48191 -0.0443,-0.637 -0.0388,-0.1551 -0.19941,-0.24926 -0.16063,-0.0942 -0.52621,-0.0942 v -0.21048 h 2.45382 v 0.21048 q -0.34342,0 -0.50405,0.0776 -0.1551,0.0776 -0.21049,0.2271 -0.0554,0.14402 -0.0554,0.67578 z"
         id="path2269" />
      <path
         d="m 190.96888,120.01886 q 1.15213,0 1.85006,0.87518 0.59269,0.74778 0.59269,1.71713 0,0.68131 -0.32681,1.37923 -0.32681,0.69793 -0.90288,1.05244 -0.57052,0.3545 -1.27399,0.3545 -1.1466,0 -1.82237,-0.91395 -0.57053,-0.76994 -0.57053,-1.72821 0,-0.69793 0.34343,-1.38478 0.34896,-0.69238 0.91395,-1.01919 0.56499,-0.33235 1.19645,-0.33235 z m -0.17171,0.36004 q -0.29358,0 -0.59269,0.17726 -0.29357,0.17171 -0.47636,0.6093 -0.18279,0.43759 -0.18279,1.12444 0,1.10782 0.43759,1.91099 0.44313,0.80317 1.16321,0.80317 0.53729,0 0.88626,-0.44313 0.34896,-0.44313 0.34896,-1.52325 0,-1.35155 -0.5816,-2.12702 -0.39328,-0.53176 -1.00258,-0.53176 z"
         id="path2271" />
    </g>
    <g
       aria-label="не
определено"
       id="text1358-4-8-7-6-0"
       style="font-size:11.3441px;font-family:'Times New Roman';-inkscape-font-specification:'Times New Roman, Normal';stroke-width:2.09116">
      <path
         d="m 307.89148,108.58698 h 2.19349 v -1.07459 q 0,-0.4819 -0.0388,-0.62592 -0.0388,-0.14955 -0.19387,-0.24926 -0.14955,-0.10524 -0.53729,-0.10524 v -0.21049 h 2.45383 v 0.21049 q -0.34343,0 -0.50406,0.0776 -0.1551,0.0775 -0.21049,0.2271 -0.0554,0.14402 -0.0554,0.67577 v 2.69201 q 0,0.4819 0.0388,0.637 0.0443,0.15509 0.20495,0.2548 0.16063,0.0942 0.52622,0.0942 v 0.20495 h -2.45383 v -0.20495 q 0.45975,0 0.61484,-0.16617 0.1551,-0.17171 0.1551,-0.81979 v -1.25738 h -2.19349 v 1.25738 q 0,0.4819 0.0388,0.637 0.0443,0.15509 0.20495,0.2548 0.16063,0.0942 0.52621,0.0942 v 0.20495 h -2.45382 v -0.20495 q 0.49298,0 0.63146,-0.17725 0.13847,-0.18279 0.13847,-0.80871 v -2.69201 q 0,-0.4819 -0.0443,-0.637 -0.0388,-0.15509 -0.19941,-0.24926 -0.16063,-0.0942 -0.52621,-0.0942 v -0.21049 h 2.45382 v 0.21049 q -0.34342,0 -0.50405,0.0776 -0.1551,0.0775 -0.21049,0.2271 -0.0554,0.14402 -0.0554,0.67577 z"
         id="path2189" />
      <path
         d="m 313.23118,108.23248 q -0.006,1.12998 0.54837,1.77251 0.55391,0.64254 1.30169,0.64254 0.49852,0 0.86411,-0.27142 0.37112,-0.27695 0.62038,-0.94165 l 0.17171,0.11079 q -0.11632,0.75885 -0.67577,1.38477 -0.55945,0.62038 -1.4014,0.62038 -0.91395,0 -1.56757,-0.709 -0.64807,-0.71455 -0.64807,-1.91653 0,-1.3017 0.66469,-2.02732 0.67023,-0.73116 1.67835,-0.73116 0.85303,0 1.4014,0.56499 0.54837,0.55945 0.54837,1.5011 z m 0,-0.32127 h 2.34858 q -0.0277,-0.48744 -0.11632,-0.68685 -0.13847,-0.31019 -0.41543,-0.48744 -0.27142,-0.17725 -0.57053,-0.17725 -0.45974,0 -0.82533,0.36004 -0.36004,0.3545 -0.42097,0.9915 z"
         id="path2191" />
      <path
         d="m 308.78881,120.35205 q 1.15214,0 1.85007,0.87518 0.59268,0.74778 0.59268,1.71713 0,0.68131 -0.32681,1.37924 -0.3268,0.69792 -0.90287,1.05243 -0.57053,0.3545 -1.274,0.3545 -1.14659,0 -1.82236,-0.91395 -0.57053,-0.76994 -0.57053,-1.72821 0,-0.69792 0.34342,-1.38477 0.34897,-0.69239 0.91396,-1.0192 0.56499,-0.33235 1.19644,-0.33235 z m -0.17171,0.36004 q -0.29357,0 -0.59268,0.17726 -0.29358,0.17171 -0.47637,0.6093 -0.18279,0.43759 -0.18279,1.12444 0,1.10782 0.43759,1.91099 0.44313,0.80317 1.16322,0.80317 0.53729,0 0.88625,-0.44313 0.34897,-0.44313 0.34897,-1.52325 0,-1.35155 -0.58161,-2.12702 -0.39328,-0.53176 -1.00258,-0.53176 z"
         id="path2193" />
      <path
         d="m 315.75702,120.86165 h -2.19349 v 3.52288 q 0,0.58714 0.0609,0.70346 0.0609,0.11078 0.18833,0.19941 0.13294,0.0831 0.52067,0.0831 v 0.20494 h -2.45382 v -0.20494 q 0.49298,0 0.63146,-0.17725 0.13847,-0.18279 0.13847,-0.80871 v -2.69201 q 0,-0.59269 -0.0609,-0.69793 -0.0609,-0.11078 -0.18833,-0.19387 -0.12739,-0.0886 -0.52067,-0.0886 v -0.21048 h 5.56127 v 0.21048 q -0.37112,0 -0.49852,0.0776 -0.1274,0.072 -0.19941,0.18279 -0.072,0.11079 -0.072,0.72009 v 2.69201 q 0,0.58714 0.0609,0.70346 0.0609,0.11078 0.18833,0.19941 0.13294,0.0831 0.52068,0.0831 v 0.20494 h -2.45383 v -0.20494 q 0.45975,0 0.61484,-0.16618 0.1551,-0.17171 0.1551,-0.81978 z"
         id="path2195" />
      <path
         d="m 317.68463,121.00567 1.56203,-0.63146 h 0.21048 v 1.18537 q 0.39328,-0.67023 0.78656,-0.93611 0.39881,-0.27142 0.8364,-0.27142 0.7644,0 1.274,0.59823 0.62592,0.73116 0.62592,1.90545 0,1.31277 -0.75332,2.17133 -0.62038,0.70347 -1.56203,0.70347 -0.4099,0 -0.70901,-0.11632 -0.22156,-0.0831 -0.49852,-0.33235 v 1.54541 q 0,0.52068 0.0609,0.65916 0.0665,0.14401 0.22157,0.2271 0.16063,0.0831 0.57607,0.0831 v 0.20495 h -2.65878 v -0.20495 h 0.13848 q 0.30465,0.006 0.52068,-0.11632 0.10524,-0.0609 0.16063,-0.19941 0.0609,-0.13294 0.0609,-0.68685 v -4.79687 q 0,-0.49298 -0.0443,-0.62592 -0.0443,-0.13294 -0.14402,-0.19941 -0.0942,-0.0665 -0.26034,-0.0665 -0.13294,0 -0.33788,0.0776 z m 1.77251,0.88072 v 1.89437 q 0,0.61484 0.0498,0.80871 0.0776,0.32127 0.37666,0.56499 0.30466,0.24372 0.7644,0.24372 0.55391,0 0.89734,-0.43205 0.44867,-0.56499 0.44867,-1.58972 0,-1.16322 -0.5096,-1.78914 -0.35451,-0.43205 -0.84195,-0.43205 -0.26587,0 -0.52621,0.13294 -0.19941,0.0997 -0.65916,0.59823 z"
         id="path2197" />
      <path
         d="m 324.57528,122.4126 q -0.006,1.12998 0.54837,1.77252 0.55392,0.64253 1.3017,0.64253 0.49852,0 0.8641,-0.27141 0.37112,-0.27696 0.62038,-0.94165 l 0.17171,0.11078 q -0.11632,0.75886 -0.67577,1.38478 -0.55945,0.62038 -1.4014,0.62038 -0.91395,0 -1.56757,-0.70901 -0.64807,-0.71454 -0.64807,-1.91653 0,-1.30169 0.66469,-2.02731 0.67023,-0.73117 1.67835,-0.73117 0.85303,0 1.4014,0.56499 0.54837,0.55945 0.54837,1.5011 z m 0,-0.32127 h 2.34859 q -0.0277,-0.48744 -0.11633,-0.68685 -0.13847,-0.31019 -0.41543,-0.48744 -0.27142,-0.17725 -0.57053,-0.17725 -0.45974,0 -0.82533,0.36004 -0.36004,0.35451 -0.42097,0.9915 z"
         id="path2199" />
      <path
         d="m 329.30014,120.50161 h 4.47561 v 0.21048 q -0.37666,0 -0.50406,0.0776 -0.12186,0.072 -0.19387,0.18279 -0.072,0.11079 -0.072,0.72009 v 2.50921 q 0,0.7921 0.13294,0.97489 0.13848,0.17725 0.637,0.19387 v 1.61188 h -0.21049 q -0.0222,-0.45421 -0.2271,-0.79209 -0.19941,-0.33789 -0.55945,-0.47637 -0.36005,-0.13848 -1.06351,-0.13848 h -1.30723 q -0.60931,0 -0.95273,0.10525 -0.34343,0.11078 -0.57607,0.4542 -0.2271,0.34343 -0.27695,0.84749 h -0.20495 v -1.61188 q 0.45421,-0.0166 0.82533,-0.36004 0.37112,-0.34343 0.65361,-1.34601 0.2825,-1.00258 0.2825,-1.97192 0,-0.95273 -0.85857,-0.98043 z m 1.22415,0.36004 v 0.30465 q 0,2.71971 -0.98596,4.04909 h 1.88329 q 0.5096,0 0.58715,-0.0831 0.0775,-0.0886 0.0775,-0.637 v -3.63366 z"
         id="path2201" />
      <path
         d="m 335.23253,122.4126 q -0.006,1.12998 0.54837,1.77252 0.55391,0.64253 1.30169,0.64253 0.49852,0 0.86411,-0.27141 0.37112,-0.27696 0.62038,-0.94165 l 0.17171,0.11078 q -0.11632,0.75886 -0.67577,1.38478 -0.55945,0.62038 -1.4014,0.62038 -0.91395,0 -1.56757,-0.70901 -0.64807,-0.71454 -0.64807,-1.91653 0,-1.30169 0.66469,-2.02731 0.67023,-0.73117 1.67835,-0.73117 0.85303,0 1.4014,0.56499 0.54837,0.55945 0.54837,1.5011 z m 0,-0.32127 h 2.34858 q -0.0277,-0.48744 -0.11632,-0.68685 -0.13847,-0.31019 -0.41543,-0.48744 -0.27142,-0.17725 -0.57053,-0.17725 -0.45974,0 -0.82533,0.36004 -0.36004,0.35451 -0.42097,0.9915 z"
         id="path2203" />
      <path
         d="m 339.93524,120.50161 h 4.53653 v 0.21048 q -0.37666,0 -0.50406,0.0776 -0.12186,0.072 -0.19387,0.18279 -0.072,0.11079 -0.072,0.72009 v 2.69201 q 0,0.58714 0.0609,0.70346 0.0609,0.11078 0.18833,0.19941 0.13294,0.0831 0.52068,0.0831 v 0.20494 h -2.62554 v -0.20494 q 0.42651,0 0.58715,-0.0443 0.16617,-0.0443 0.26034,-0.21048 0.0942,-0.17171 0.0942,-0.73116 v -3.52288 h -1.68943 v 2.1381 q 0,1.21306 -0.11078,1.70604 -0.10524,0.48745 -0.42651,0.72563 -0.31573,0.23264 -0.72563,0.23264 -0.709,0 -0.709,-0.58715 0,-0.1994 0.11078,-0.3268 0.11632,-0.1274 0.29911,-0.1274 0.19387,0 0.36004,0.16063 0.21603,0.21049 0.32681,0.21049 0.24926,0 0.36004,-0.41544 0.11633,-0.42097 0.11633,-1.46786 v -1.1189 q 0,-0.8641 -0.1274,-1.05243 -0.12186,-0.18833 -0.637,-0.22711 z"
         id="path2205" />
      <path
         d="m 345.92856,122.4126 q -0.006,1.12998 0.54837,1.77252 0.55391,0.64253 1.30169,0.64253 0.49852,0 0.8641,-0.27141 0.37112,-0.27696 0.62038,-0.94165 l 0.17171,0.11078 q -0.11632,0.75886 -0.67577,1.38478 -0.55945,0.62038 -1.40139,0.62038 -0.91396,0 -1.56757,-0.70901 -0.64808,-0.71454 -0.64808,-1.91653 0,-1.30169 0.6647,-2.02731 0.67023,-0.73117 1.67835,-0.73117 0.85302,0 1.40139,0.56499 0.54837,0.55945 0.54837,1.5011 z m 0,-0.32127 h 2.34858 q -0.0277,-0.48744 -0.11632,-0.68685 -0.13848,-0.31019 -0.41543,-0.48744 -0.27142,-0.17725 -0.57053,-0.17725 -0.45975,0 -0.82533,0.36004 -0.36004,0.35451 -0.42097,0.9915 z"
         id="path2207" />
      <path
         d="m 351.69477,122.76711 h 2.19349 v -1.07459 q 0,-0.48191 -0.0388,-0.62592 -0.0388,-0.14956 -0.19386,-0.24926 -0.14956,-0.10525 -0.5373,-0.10525 v -0.21048 h 2.45383 v 0.21048 q -0.34343,0 -0.50406,0.0776 -0.1551,0.0775 -0.21049,0.22711 -0.0554,0.14401 -0.0554,0.67577 v 2.69201 q 0,0.4819 0.0388,0.63699 0.0443,0.1551 0.20495,0.2548 0.16064,0.0942 0.52622,0.0942 v 0.20494 h -2.45383 v -0.20494 q 0.45975,0 0.61484,-0.16618 0.1551,-0.17171 0.1551,-0.81978 v -1.25738 h -2.19349 v 1.25738 q 0,0.4819 0.0388,0.63699 0.0443,0.1551 0.20495,0.2548 0.16063,0.0942 0.52622,0.0942 v 0.20494 h -2.45383 v -0.20494 q 0.49298,0 0.63146,-0.17725 0.13848,-0.18279 0.13848,-0.80871 v -2.69201 q 0,-0.48191 -0.0443,-0.637 -0.0388,-0.1551 -0.1994,-0.24926 -0.16064,-0.0942 -0.52622,-0.0942 v -0.21048 h 2.45383 v 0.21048 q -0.34343,0 -0.50406,0.0776 -0.1551,0.0775 -0.21049,0.22711 -0.0554,0.14401 -0.0554,0.67577 z"
         id="path2209" />
      <path
         d="m 358.66297,120.35205 q 1.15214,0 1.85006,0.87518 0.59269,0.74778 0.59269,1.71713 0,0.68131 -0.32681,1.37924 -0.32681,0.69792 -0.90287,1.05243 -0.57053,0.3545 -1.274,0.3545 -1.1466,0 -1.82237,-0.91395 -0.57053,-0.76994 -0.57053,-1.72821 0,-0.69792 0.34343,-1.38477 0.34896,-0.69239 0.91395,-1.0192 0.56499,-0.33235 1.19645,-0.33235 z m -0.17171,0.36004 q -0.29357,0 -0.59269,0.17726 -0.29357,0.17171 -0.47636,0.6093 -0.18279,0.43759 -0.18279,1.12444 0,1.10782 0.43759,1.91099 0.44313,0.80317 1.16321,0.80317 0.5373,0 0.88626,-0.44313 0.34896,-0.44313 0.34896,-1.52325 0,-1.35155 -0.5816,-2.12702 -0.39328,-0.53176 -1.00258,-0.53176 z"
         id="path2211" />
    </g>
    <text
       xml:space="preserve"
       transform="scale(0.26458333)"
       id="text2050"
       style="font-style:normal;font-variant:normal;font-weight:normal;font-stretch:normal;font-size:41.006px;font-family:'Times New Roman';-inkscape-font-specification:'Times New Roman, Normal';font-variant-ligatures:normal;font-variant-caps:normal;font-variant-numeric:normal;font-variant-east-asian:normal;white-space:pre;shape-inside:url(#rect2052);fill:#000000;stroke:none;stroke-width:7.55906;stroke-dasharray:none;stroke-opacity:1" />
  </g>
</svg>
